# Blender v2.93.3 OBJ File: 'battery_s.blend'
# www.blender.org
mtllib battery_s.mtl
o battery_s
v 0.270000 0.777000 0.250000
v -0.130000 0.777000 0.250000
v 0.270000 0.797000 0.250000
v -0.130000 0.797000 0.250000
v -0.130000 0.777000 0.200000
v -0.130000 0.797000 0.200000
v 0.270000 0.777000 0.200000
v 0.270000 0.797000 0.200000
v 0.270000 0.777000 -0.200000
v -0.130000 0.777000 -0.200000
v 0.270000 0.797000 -0.200000
v -0.130000 0.797000 -0.200000
v -0.130000 0.777000 -0.250000
v -0.130000 0.797000 -0.250000
v 0.270000 0.777000 -0.250000
v 0.270000 0.797000 -0.250000
v -0.270000 0.777000 0.480000
v -0.270000 0.777000 -0.480000
v 0.270000 0.777000 0.480000
v 0.270000 0.777000 -0.480000
v -0.095000 0.999000 -0.455000
v -0.095000 0.974000 -0.455000
v 0.095000 0.999000 -0.455000
v 0.095000 0.974000 -0.455000
v -0.095000 0.974000 -0.480000
v 0.095000 0.974000 -0.480000
v -0.095000 0.974000 0.480000
v -0.095000 0.974000 0.455000
v 0.095000 0.974000 0.480000
v 0.095000 0.974000 0.455000
v -0.095000 0.999000 0.455000
v 0.095000 0.999000 0.455000
v -0.095000 0.939000 -0.480000
v -0.095000 0.939000 -0.420000
v -0.095000 0.999000 -0.420000
v -0.270000 0.999000 -0.480000
v 0.270000 0.999000 -0.480000
v 0.095000 0.939000 -0.480000
v -0.095000 0.999000 0.420000
v -0.095000 0.939000 0.420000
v -0.095000 0.939000 0.480000
v 0.095000 0.999000 0.420000
v 0.095000 0.939000 0.420000
v 0.095000 0.939000 0.480000
v 0.095000 0.939000 -0.420000
v 0.095000 0.999000 -0.420000
v -0.270000 0.999000 0.480000
v 0.270000 0.999000 0.480000
vt 0.000224 0.296281
vt 0.262221 0.296281
vt 0.000224 0.309381
vt 0.262221 0.309381
vt 0.733360 0.629464
vt 0.766109 0.629464
vt 0.733360 0.642564
vt 0.766109 0.642564
vt 0.262221 0.329030
vt 0.000224 0.329030
vt 0.262221 0.315930
vt 0.000224 0.315930
vt 0.766109 0.904562
vt 0.733360 0.904562
vt 0.000224 0.591028
vt 0.262221 0.591028
vt 0.000224 0.604128
vt 0.262221 0.604128
vt 0.766557 0.629464
vt 0.799307 0.629464
vt 0.766557 0.642564
vt 0.799307 0.642564
vt 0.262221 0.623778
vt 0.000225 0.623778
vt 0.262221 0.610678
vt 0.000225 0.610678
vt 0.799307 0.904562
vt 0.766557 0.904562
vt 0.353920 0.145633
vt 0.353920 0.774426
vt 0.000224 0.145632
vt 0.000225 0.774426
vt 0.584188 0.674571
vt 0.578278 0.656768
vt 0.713420 0.672599
vt 0.713420 0.658676
vt 0.583829 0.639297
vt 0.713721 0.641585
vt 0.524225 0.641585
vt 0.523924 0.658676
vt 0.394333 0.639297
vt 0.388782 0.656768
vt 0.523924 0.672599
vt 0.394692 0.674571
vt 0.566460 0.629464
vt 0.543864 0.657014
vt 0.566719 0.684576
vt 0.239297 0.880534
vt 0.353920 0.919834
vt 0.239297 0.903459
vt 0.000226 0.919834
vt 0.114848 0.903459
vt 0.114848 0.880534
vt 0.543416 0.672599
vt 0.543416 0.639184
vt 0.510001 0.639184
vt 0.510001 0.658676
vt 0.354368 0.685024
vt 0.393668 0.685024
vt 0.354368 0.809472
vt 0.393668 0.809472
vt 0.432967 0.685024
vt 0.432967 0.809472
vt 0.377223 0.684576
vt 0.354368 0.657015
vt 0.376965 0.629464
vt 0.557863 0.724323
vt 0.557863 0.763623
vt 0.433415 0.724323
vt 0.433415 0.763623
vt 0.557863 0.685024
vt 0.433415 0.685024
vt 0.699497 0.658676
vt 0.699497 0.639183
vt 0.732912 0.639183
vt 0.732912 0.672599
vt 0.353920 0.000225
vt 0.114848 0.016599
vt 0.000225 0.000224
vt 0.114848 0.039524
vt 0.239297 0.039524
vt 0.239297 0.016599
vt 0.854368 0.629017
vt 0.854368 0.000224
vt 0.999776 0.629017
vt 0.999776 0.000224
vt 0.708512 0.445619
vt 0.708512 0.183622
vt 0.721612 0.445619
vt 0.721612 0.183622
vt 0.853920 0.629016
vt 0.853920 0.000224
vt 0.721612 0.150872
vt 0.708512 0.000224
vt 0.708512 0.150872
vt 0.721612 0.478368
vt 0.708512 0.629016
vt 0.708512 0.478368
vt 0.354368 0.629016
vt 0.593440 0.612642
vt 0.708064 0.629017
vt 0.593440 0.589717
vt 0.708064 0.000224
vt 0.593440 0.039524
vt 0.593440 0.016599
vt 0.354368 0.000224
vt 0.468991 0.589717
vt 0.468991 0.612642
vt 0.468992 0.016599
vt 0.468992 0.039523
vn 0.0000 0.0000 -1.0000
vn 1.0000 0.0000 0.0000
vn 0.0000 0.0000 1.0000
vn 0.0000 -1.0000 0.0000
vn 0.0000 1.0000 0.0000
vn -1.0000 0.0000 0.0000
usemtl Material.001
s off
f 1/1/1 2/2/1 3/3/1
f 3/3/1 2/2/1 4/4/1
f 2/5/2 5/6/2 4/7/2
f 4/7/2 5/6/2 6/8/2
f 5/9/3 7/10/3 6/11/3
f 6/11/3 7/10/3 8/12/3
f 6/8/4 8/13/4 4/7/4
f 4/7/4 8/13/4 3/14/4
f 9/15/1 10/16/1 11/17/1
f 11/17/1 10/16/1 12/18/1
f 10/19/2 13/20/2 12/21/2
f 12/21/2 13/20/2 14/22/2
f 13/23/3 15/24/3 14/25/3
f 14/25/3 15/24/3 16/26/3
f 14/22/4 16/27/4 12/21/4
f 12/21/4 16/27/4 11/28/4
f 7/10/4 5/9/4 9/15/4
f 9/15/4 5/9/4 10/16/4
f 10/16/4 5/9/4 17/29/4
f 10/16/4 17/29/4 18/30/4
f 5/9/4 2/2/4 17/29/4
f 17/29/4 2/2/4 19/31/4
f 19/31/4 2/2/4 1/1/4
f 10/16/4 18/30/4 13/23/4
f 13/23/4 18/30/4 20/32/4
f 13/23/4 20/32/4 15/24/4
f 21/33/3 22/34/3 23/35/3
f 23/35/3 22/34/3 24/36/3
f 22/34/4 25/37/4 24/36/4
f 24/36/4 25/37/4 26/38/4
f 27/39/4 28/40/4 29/41/4
f 29/41/4 28/40/4 30/42/4
f 28/40/1 31/43/1 30/42/1
f 30/42/1 31/43/1 32/44/1
f 25/37/2 22/34/2 33/45/2
f 33/45/2 22/34/2 34/46/2
f 34/46/2 22/34/2 35/47/2
f 35/47/2 22/34/2 21/33/2
f 33/48/1 36/49/1 25/50/1
f 25/50/1 36/49/1 37/51/1
f 25/50/1 37/51/1 26/52/1
f 26/52/1 37/51/1 38/53/1
f 38/53/1 37/51/1 20/32/1
f 38/53/1 20/32/1 18/30/1
f 36/49/1 33/48/1 18/30/1
f 18/30/1 33/48/1 38/53/1
f 31/43/2 28/40/2 39/54/2
f 39/54/2 28/40/2 40/55/2
f 40/55/2 28/40/2 41/56/2
f 41/56/2 28/40/2 27/57/2
f 39/58/3 40/59/3 42/60/3
f 42/60/3 40/59/3 43/61/3
f 40/59/5 41/62/5 43/61/5
f 43/61/5 41/62/5 44/63/5
f 32/44/6 42/64/6 30/42/6
f 30/42/6 42/64/6 43/65/6
f 30/42/6 43/65/6 44/66/6
f 44/66/6 29/41/6 30/42/6
f 34/67/1 35/68/1 45/69/1
f 45/69/1 35/68/1 46/70/1
f 33/71/5 34/67/5 38/72/5
f 38/72/5 34/67/5 45/69/5
f 26/73/6 38/74/6 24/36/6
f 24/36/6 38/74/6 45/75/6
f 24/36/6 45/75/6 46/76/6
f 46/76/6 23/35/6 24/36/6
f 47/77/3 29/78/3 48/79/3
f 48/79/3 29/78/3 44/80/3
f 48/79/3 44/80/3 19/31/3
f 19/31/3 44/80/3 41/81/3
f 19/31/3 41/81/3 17/29/3
f 17/29/3 41/81/3 47/77/3
f 47/77/3 41/81/3 27/82/3
f 47/77/3 27/82/3 29/78/3
f 18/83/6 17/84/6 36/85/6
f 36/85/6 17/84/6 47/86/6
f 7/87/2 9/88/2 8/89/2
f 8/89/2 9/88/2 11/90/2
f 8/89/2 11/90/2 48/91/2
f 48/91/2 11/90/2 37/92/2
f 37/92/2 11/90/2 16/93/2
f 37/92/2 16/93/2 20/94/2
f 20/94/2 16/93/2 15/95/2
f 8/89/2 48/91/2 3/96/2
f 3/96/2 48/91/2 19/97/2
f 3/96/2 19/97/2 1/98/2
f 36/99/5 23/100/5 37/101/5
f 37/101/5 23/100/5 46/102/5
f 37/101/5 46/102/5 48/103/5
f 48/103/5 46/102/5 42/104/5
f 48/103/5 42/104/5 32/105/5
f 47/106/5 35/107/5 36/99/5
f 36/99/5 35/107/5 21/108/5
f 36/99/5 21/108/5 23/100/5
f 48/103/5 31/109/5 47/106/5
f 47/106/5 31/109/5 39/110/5
f 47/106/5 39/110/5 35/107/5
f 35/107/5 39/110/5 42/104/5
f 35/107/5 42/104/5 46/102/5
f 32/105/5 31/109/5 48/103/5
