# Blender v2.92.0 OBJ File: ''
# www.blender.org
mtllib rack_s.mtl
o rack_s.002
v -2.467376 -0.200220 1.250170
v -2.447376 -0.205220 1.245170
v -2.467376 -0.200220 1.235170
v -2.447376 -0.205220 1.235170
v -2.447376 -0.245220 1.245170
v -2.447376 -0.245220 1.235170
v -2.467376 -0.250220 1.250170
v -2.467376 -0.250220 1.235170
v -2.847376 -0.250220 1.235170
v -2.847376 -0.250220 1.245170
v -2.827376 -0.250220 1.250170
v -2.467376 0.199780 1.250170
v -2.467376 0.199780 1.235170
v -2.447376 0.204780 1.245170
v -2.447376 0.204780 1.235170
v -2.847376 0.199780 1.235170
v -2.847376 0.199780 1.245170
v -2.827376 0.199780 1.250170
v -2.447376 0.244780 1.245170
v -2.467376 0.249780 1.250170
v -2.467376 0.249780 1.235170
v -2.447376 0.244780 1.235170
v -2.827376 0.249780 1.250170
v -2.847376 0.249780 1.245170
v -2.847376 0.249780 1.235170
v -2.827376 -0.200220 1.250170
v -2.847376 -0.200220 1.245170
v -2.847376 -0.200220 1.235170
v -2.467376 -0.200220 0.250170
v -2.447376 -0.205220 0.245170
v -2.467376 -0.200220 0.235170
v -2.447376 -0.205220 0.235170
v -2.447376 -0.245220 0.245170
v -2.447376 -0.245220 0.235170
v -2.467376 -0.250220 0.250170
v -2.467376 -0.250220 0.235170
v -2.847376 -0.250220 0.235170
v -2.847376 -0.250220 0.245170
v -2.827376 -0.250220 0.250170
v -2.467376 0.199780 0.250170
v -2.467376 0.199780 0.235170
v -2.447376 0.204780 0.245170
v -2.447376 0.204780 0.235170
v -2.847376 0.199780 0.235170
v -2.847376 0.199780 0.245170
v -2.827376 0.199780 0.250170
v -2.447376 0.244780 0.245170
v -2.467376 0.249780 0.250170
v -2.467376 0.249780 0.235170
v -2.447376 0.244780 0.235170
v -2.827376 0.249780 0.250170
v -2.847376 0.249780 0.245170
v -2.847376 0.249780 0.235170
v -2.827376 -0.200220 0.250170
v -2.847376 -0.200220 0.245170
v -2.847376 -0.200220 0.235170
v -2.967376 0.999780 1.235170
v -2.967376 0.999780 1.785170
v -2.967376 -1.000220 1.235170
v -2.967376 -1.000220 1.785170
v -2.217376 -1.000220 1.235170
v -2.217376 0.999780 1.235170
v -2.217376 0.999780 1.185170
v -2.217376 -1.000220 1.185170
v -2.967376 0.999780 1.185170
v -2.967376 -1.000220 1.185170
v -2.967376 0.999780 0.235170
v -2.967376 -1.000220 0.235170
v -2.217376 -1.000220 0.235170
v -2.217376 0.999780 0.235170
v -2.217376 0.999780 -0.014830
v -2.217376 -1.000220 -0.014830
v -3.017376 0.999780 -0.014830
v -3.017376 -1.000220 -0.014830
v -3.017376 0.999780 1.785170
v -3.017376 -1.000220 1.785170
vt 1.030776 1.500000
vt -1.030776 1.000000
vt 1.030776 0.000000
vt -1.030776 0.000000
vt 4.500000 1.000000
vt 0.500000 1.000000
vt 4.500000 0.000000
vt 0.500000 0.000000
vt -3.750000 -1.030776
vt 1.250000 -1.030776
vt -3.250000 1.030776
vt 0.750000 1.030776
vt -1.030776 1.500000
vt -1.030776 0.000000
vt 1.030776 1.000000
vt 1.030776 0.000000
vt 0.000000 0.000000
vt 38.000000 0.000000
vt 0.000000 1.000000
vt 38.000000 1.500000
vt 2.000000 1.500000
vt -1.030776 1.500000
vt -1.030776 0.000000
vt 1.030776 1.000000
vt 1.030776 0.000000
vt 0.000000 0.000000
vt 38.000000 0.000000
vt 0.000000 1.000000
vt 38.000000 1.500000
vt 2.000000 1.500000
vt 0.750000 1.030776
vt -3.250000 1.030776
vt 1.250000 -1.030776
vt -3.750000 -1.030776
vt 1.030776 1.500000
vt -1.030776 1.000000
vt 1.030776 0.000000
vt -1.030776 0.000000
vt 38.000000 1.500000
vt 2.000000 1.500000
vt 40.000000 1.000000
vt 2.000000 0.000000
vt 40.000000 0.000000
vt 3.750000 1.030776
vt -1.250000 1.030776
vt 3.750000 -1.030776
vt -1.250000 -1.030776
vt 38.000000 1.500000
vt 2.000000 1.500000
vt 40.000000 1.000000
vt 2.000000 0.000000
vt 40.000000 0.000000
vt -2.500000 -18.000000
vt 2.500000 -18.000000
vt -2.500000 18.000000
vt 2.500000 18.000000
vt 5.000000 1.000000
vt 0.000000 1.000000
vt 5.000000 0.000000
vt 0.000000 0.000000
vt 3.750000 1.030776
vt -1.250000 1.030776
vt 3.750000 -1.030776
vt -1.250000 -1.030776
vt -2.500000 -18.000000
vt 2.500000 -18.000000
vt -2.500000 18.000000
vt 2.500000 18.000000
vt 5.000000 1.000000
vt 0.000000 1.000000
vt 5.000000 0.000000
vt 0.000000 0.000000
vt 0.500000 0.000000
vt 4.500000 0.000000
vt 0.500000 1.000000
vt 4.500000 1.000000
vt 1.030776 1.500000
vt -1.030776 1.000000
vt 1.030776 0.000000
vt -1.030776 0.000000
vt 4.500000 1.000000
vt 0.500000 1.000000
vt 4.500000 0.000000
vt 0.500000 0.000000
vt -3.750000 -1.030776
vt 1.250000 -1.030776
vt -3.250000 1.030776
vt 0.750000 1.030776
vt -1.030776 1.500000
vt -1.030776 0.000000
vt 1.030776 1.000000
vt 1.030776 0.000000
vt 0.000000 0.000000
vt 38.000000 0.000000
vt 0.000000 1.000000
vt 38.000000 1.500000
vt 2.000000 1.500000
vt -1.030776 1.500000
vt -1.030776 0.000000
vt 1.030776 1.000000
vt 1.030776 0.000000
vt 0.000000 0.000000
vt 38.000000 0.000000
vt 0.000000 1.000000
vt 38.000000 1.500000
vt 2.000000 1.500000
vt 0.750000 1.030776
vt -3.250000 1.030776
vt 1.250000 -1.030776
vt -3.750000 -1.030776
vt 1.030776 1.500000
vt -1.030776 1.000000
vt 1.030776 0.000000
vt -1.030776 0.000000
vt 38.000000 1.500000
vt 2.000000 1.500000
vt 40.000000 1.000000
vt 2.000000 0.000000
vt 40.000000 0.000000
vt 3.750000 1.030776
vt -1.250000 1.030776
vt 3.750000 -1.030776
vt -1.250000 -1.030776
vt 38.000000 1.500000
vt 2.000000 1.500000
vt 40.000000 1.000000
vt 2.000000 0.000000
vt 40.000000 0.000000
vt -2.500000 -18.000000
vt 2.500000 -18.000000
vt -2.500000 18.000000
vt 2.500000 18.000000
vt 3.750000 1.030776
vt -1.250000 1.030776
vt 3.750000 -1.030776
vt -1.250000 -1.030776
vt -2.500000 -18.000000
vt 2.500000 -18.000000
vt -2.500000 18.000000
vt 2.500000 18.000000
vt 5.000000 1.000000
vt 0.000000 1.000000
vt 5.000000 0.000000
vt 0.000000 0.000000
vt 5.000000 1.000000
vt 0.000000 1.000000
vt 5.000000 0.000000
vt 0.000000 0.000000
vt 0.500000 0.000000
vt 4.500000 0.000000
vt 0.500000 1.000000
vt 4.500000 1.000000
vt 0.000000 0.000000
vt 55.000000 0.000000
vt 0.000000 200.000000
vt 55.000000 200.000000
vt 25.000000 120.000000
vt 63.000000 80.000000
vt 63.000000 120.000000
vt 75.000000 0.000000
vt 75.000000 200.000000
vt 23.000000 120.500000
vt 23.000000 79.500000
vt 25.000000 80.000000
vt 23.000000 124.500000
vt 0.000000 200.000000
vt 0.000000 0.000000
vt 23.000000 75.500000
vt 25.000000 75.000000
vt 63.000000 75.000000
vt 25.000000 125.000000
vt 63.000000 125.000000
vt 0.000000 0.000000
vt 5.000000 0.000000
vt 0.000000 200.000000
vt 5.000000 200.000000
vt 0.000000 0.000000
vt 75.000000 0.000000
vt 0.000000 200.000000
vt 75.000000 200.000000
vt 0.000000 0.000000
vt 95.000000 0.000000
vt 0.000000 200.000000
vt 95.000000 200.000000
vt 25.000000 120.000000
vt 63.000000 80.000000
vt 63.000000 120.000000
vt 75.000000 0.000000
vt 75.000000 200.000000
vt 23.000000 120.500000
vt 23.000000 79.500000
vt 25.000000 80.000000
vt 23.000000 124.500000
vt 0.000000 200.000000
vt 0.000000 0.000000
vt 23.000000 75.500000
vt 25.000000 75.000000
vt 63.000000 75.000000
vt 25.000000 125.000000
vt 63.000000 125.000000
vt 0.000000 0.000000
vt 25.000000 0.000000
vt 0.000000 200.000000
vt 25.000000 200.000000
vt 0.000000 0.000000
vt 80.000000 0.000000
vt 0.000000 200.000000
vt 80.000000 200.000000
vt 0.000000 0.000000
vt 180.000000 0.000000
vt 0.000000 200.000000
vt 180.000000 200.000000
vt 0.000000 0.000000
vt 5.000000 0.000000
vt 0.000000 200.000000
vt 5.000000 200.000000
vt -35.000000 90.000000
vt -40.000000 90.000000
vt -35.000000 35.000000
vt -35.000000 30.000000
vt 40.000000 30.000000
vt -40.000000 -90.000000
vt -35.000000 -65.000000
vt 40.000000 -90.000000
vt 40.000000 -65.000000
vt 40.000000 35.000000
vt 35.000000 90.000000
vt 35.000000 35.000000
vt 40.000000 90.000000
vt 35.000000 30.000000
vt 40.000000 -90.000000
vt 35.000000 -65.000000
vt -40.000000 -90.000000
vt -40.000000 -65.000000
vt -40.000000 35.000000
vt -40.000000 30.000000
vn 0.2425 0.9701 0.0000
vn 1.0000 0.0000 0.0000
vn 0.2425 0.0000 0.9701
vn 0.2425 -0.9701 0.0000
vn 0.0000 -1.0000 0.0000
vn 0.0000 1.0000 0.0000
vn -0.2425 0.0000 0.9701
vn 0.0000 0.0000 1.0000
vn -1.0000 0.0000 0.0000
vn 0.0000 0.0000 -1.0000
usemtl 16,171,74.004
s 1
f 1/1/1 2/2/1 3/3/1
f 3/3/1 2/2/1 4/4/1
f 2/5/2 5/6/2 4/7/2
f 4/7/2 5/6/2 6/8/2
f 1/9/3 7/10/3 2/11/3
f 2/11/3 7/10/3 5/12/3
f 7/13/4 8/14/4 5/15/4
f 5/15/4 8/14/4 6/16/4
f 9/17/5 8/18/5 10/19/5
f 10/19/5 8/18/5 7/20/5
f 10/19/5 7/20/5 11/21/5
f 12/22/4 13/23/4 14/24/4
f 14/24/4 13/23/4 15/25/4
f 16/26/5 13/27/5 17/28/5
f 17/28/5 13/27/5 12/29/5
f 17/28/5 12/29/5 18/30/5
f 14/31/3 19/32/3 12/33/3
f 12/33/3 19/32/3 20/34/3
f 20/35/1 19/36/1 21/37/1
f 21/37/1 19/36/1 22/38/1
f 23/39/6 20/40/6 24/41/6
f 24/41/6 20/40/6 21/42/6
f 24/41/6 21/42/6 25/43/6
f 11/44/7 26/45/7 10/46/7
f 10/46/7 26/45/7 27/47/7
f 26/48/6 1/49/6 27/50/6
f 27/50/6 1/49/6 3/51/6
f 27/50/6 3/51/6 28/52/6
f 26/53/8 11/54/8 1/55/8
f 1/55/8 11/54/8 7/56/8
f 10/57/9 27/58/9 9/59/9
f 9/59/9 27/58/9 28/60/9
f 18/61/7 23/62/7 17/63/7
f 17/63/7 23/62/7 24/64/7
f 23/65/8 18/66/8 20/67/8
f 20/67/8 18/66/8 12/68/8
f 17/69/9 24/70/9 16/71/9
f 16/71/9 24/70/9 25/72/9
f 15/73/2 22/74/2 14/75/2
f 14/75/2 22/74/2 19/76/2
f 29/77/1 30/78/1 31/79/1
f 31/79/1 30/78/1 32/80/1
f 30/81/2 33/82/2 32/83/2
f 32/83/2 33/82/2 34/84/2
f 29/85/3 35/86/3 30/87/3
f 30/87/3 35/86/3 33/88/3
f 35/89/4 36/90/4 33/91/4
f 33/91/4 36/90/4 34/92/4
f 37/93/5 36/94/5 38/95/5
f 38/95/5 36/94/5 35/96/5
f 38/95/5 35/96/5 39/97/5
f 40/98/4 41/99/4 42/100/4
f 42/100/4 41/99/4 43/101/4
f 44/102/5 41/103/5 45/104/5
f 45/104/5 41/103/5 40/105/5
f 45/104/5 40/105/5 46/106/5
f 42/107/3 47/108/3 40/109/3
f 40/109/3 47/108/3 48/110/3
f 48/111/1 47/112/1 49/113/1
f 49/113/1 47/112/1 50/114/1
f 51/115/6 48/116/6 52/117/6
f 52/117/6 48/116/6 49/118/6
f 52/117/6 49/118/6 53/119/6
f 39/120/7 54/121/7 38/122/7
f 38/122/7 54/121/7 55/123/7
f 54/124/6 29/125/6 55/126/6
f 55/126/6 29/125/6 31/127/6
f 55/126/6 31/127/6 56/128/6
f 54/129/8 39/130/8 29/131/8
f 29/131/8 39/130/8 35/132/8
f 46/133/7 51/134/7 45/135/7
f 45/135/7 51/134/7 52/136/7
f 51/137/8 46/138/8 48/139/8
f 48/139/8 46/138/8 40/140/8
f 38/141/9 55/142/9 37/143/9
f 37/143/9 55/142/9 56/144/9
f 45/145/9 52/146/9 44/147/9
f 44/147/9 52/146/9 53/148/9
f 43/149/2 50/150/2 42/151/2
f 42/151/2 50/150/2 47/152/2
f 57/153/2 58/154/2 59/155/2
f 59/155/2 58/154/2 60/156/2
f 3/157/8 16/158/8 28/159/8
f 28/159/8 16/158/8 57/160/8
f 28/159/8 57/160/8 59/161/8
f 4/162/8 15/163/8 3/157/8
f 3/157/8 15/163/8 13/164/8
f 3/157/8 13/164/8 16/158/8
f 6/165/8 61/166/8 4/162/8
f 4/162/8 61/166/8 62/167/8
f 4/162/8 62/167/8 15/163/8
f 15/163/8 62/167/8 22/168/8
f 22/168/8 62/167/8 21/169/8
f 21/169/8 62/167/8 57/160/8
f 21/169/8 57/160/8 25/170/8
f 25/170/8 57/160/8 16/158/8
f 6/165/8 8/171/8 61/166/8
f 61/166/8 8/171/8 59/161/8
f 59/161/8 8/171/8 9/172/8
f 59/161/8 9/172/8 28/159/8
f 63/173/2 62/174/2 64/175/2
f 64/175/2 62/174/2 61/176/2
f 65/177/10 63/178/10 66/179/10
f 66/179/10 63/178/10 64/180/10
f 67/181/2 65/182/2 68/183/2
f 68/183/2 65/182/2 66/184/2
f 31/185/8 44/186/8 56/187/8
f 56/187/8 44/186/8 67/188/8
f 56/187/8 67/188/8 68/189/8
f 32/190/8 43/191/8 31/185/8
f 31/185/8 43/191/8 41/192/8
f 31/185/8 41/192/8 44/186/8
f 34/193/8 69/194/8 32/190/8
f 32/190/8 69/194/8 70/195/8
f 32/190/8 70/195/8 43/191/8
f 43/191/8 70/195/8 50/196/8
f 50/196/8 70/195/8 49/197/8
f 49/197/8 70/195/8 67/188/8
f 49/197/8 67/188/8 53/198/8
f 53/198/8 67/188/8 44/186/8
f 34/193/8 36/199/8 69/194/8
f 69/194/8 36/199/8 68/189/8
f 68/189/8 36/199/8 37/200/8
f 68/189/8 37/200/8 56/187/8
f 71/201/2 70/202/2 72/203/2
f 72/203/2 70/202/2 69/204/2
f 73/205/10 71/206/10 74/207/10
f 74/207/10 71/206/10 72/208/10
f 75/209/9 73/210/9 76/211/9
f 76/211/9 73/210/9 74/212/9
f 58/213/8 75/214/8 60/215/8
f 60/215/8 75/214/8 76/216/8
f 60/217/5 76/218/5 59/219/5
f 59/219/5 76/218/5 66/220/5
f 59/219/5 66/220/5 64/221/5
f 76/218/5 74/222/5 66/220/5
f 66/220/5 74/222/5 68/223/5
f 68/223/5 74/222/5 72/224/5
f 68/223/5 72/224/5 69/225/5
f 64/221/5 61/226/5 59/219/5
f 58/227/6 57/228/6 75/229/6
f 75/229/6 57/228/6 65/230/6
f 75/229/6 65/230/6 73/231/6
f 73/231/6 65/230/6 67/232/6
f 73/231/6 67/232/6 71/233/6
f 71/233/6 67/232/6 70/234/6
f 57/228/6 62/235/6 65/230/6
f 65/230/6 62/235/6 63/236/6
