# Blender v2.92.0 OBJ File: ''
# www.blender.org
mtllib x-slider_s.mtl
o x-slider_s
v 0.271490 -0.255000 0.662000
v 0.291490 -0.275000 0.662000
v 0.271490 -0.255000 0.682000
v 0.291490 -0.275000 0.682000
v 0.271490 -0.235000 0.682000
v 0.651490 -0.275000 0.682000
v 0.671490 -0.235000 0.682000
v 0.671490 -0.255000 0.682000
v 0.651490 -0.275000 0.662000
v 0.291490 0.275000 0.662000
v 0.271490 0.255000 0.662000
v 0.291490 0.275000 0.682000
v 0.271490 0.255000 0.682000
v 0.651490 0.275000 0.682000
v 0.651490 0.275000 0.662000
v 0.271490 0.235000 0.682000
v 0.671490 0.235000 0.682000
v 0.671490 0.255000 0.682000
v 0.671490 0.255000 0.662000
v 0.671490 -0.255000 0.662000
v 0.271490 -0.200000 0.717000
v 0.271490 -0.200000 0.777000
v 0.671490 -0.200000 0.717000
v 0.671490 -0.200000 0.777000
v 0.271490 0.200000 0.717000
v 0.671490 0.200000 0.717000
v 0.271490 0.200000 0.777000
v 0.671490 0.200000 0.777000
v 0.271490 0.235000 0.777000
v 0.671490 0.235000 0.777000
v 0.271490 -0.235000 0.777000
v 0.671490 -0.235000 0.777000
v 0.668290 0.203200 0.555200
v 0.668290 0.246800 0.555200
v -0.317310 0.203200 0.555200
v -0.317310 0.246800 0.555200
v 0.668290 0.246800 0.648800
v -0.317310 0.246800 0.648800
v -0.317310 0.203200 0.648800
v 0.668290 0.203200 0.648800
v 0.668290 -0.246800 0.648800
v 0.668290 -0.203200 0.648800
v 0.668290 -0.246800 0.555200
v 0.668290 -0.203200 0.555200
v -0.317310 -0.246800 0.555200
v -0.317310 -0.203200 0.555200
v -0.317310 -0.203200 0.648800
v -0.317310 -0.246800 0.648800
v -0.317310 -0.250000 0.648800
v -0.317310 -0.250000 0.555200
v -0.173710 -0.250000 0.648800
v -0.173710 -0.250000 0.555200
v -0.317310 -0.476800 0.555200
v -0.173710 -0.476800 0.555200
v -0.317310 -0.476800 0.648800
v -0.173710 -0.476800 0.648800
v -0.317310 0.476800 0.555200
v -0.173710 0.476800 0.555200
v -0.317310 0.476800 0.648800
v -0.173710 0.476800 0.648800
v -0.173710 0.250000 0.648800
v -0.173710 0.250000 0.555200
v -0.317310 0.250000 0.648800
v -0.317310 0.250000 0.555200
v 0.644490 0.200000 0.552000
v 0.644490 0.200000 0.652000
v 0.644490 -0.200000 0.552000
v 0.644490 -0.200000 0.652000
v 0.594490 0.200000 0.652000
v 0.594490 0.200000 0.552000
v 0.594490 -0.200000 0.652000
v 0.594490 -0.200000 0.552000
v 0.144490 0.200000 0.652000
v 0.144490 0.200000 0.552000
v 0.144490 -0.200000 0.652000
v 0.144490 -0.200000 0.552000
v 0.194490 0.200000 0.552000
v 0.194490 0.200000 0.652000
v 0.194490 -0.200000 0.552000
v 0.194490 -0.200000 0.652000
v -0.170510 0.200000 0.552000
v -0.170510 0.200000 0.652000
v -0.170510 -0.200000 0.552000
v -0.170510 -0.200000 0.652000
v 0.271490 -0.200000 0.652000
v 0.271490 0.200000 0.652000
v 0.671490 0.200000 0.652000
v 0.671490 -0.200000 0.652000
v 0.671490 -0.200000 0.552000
v 0.671490 0.200000 0.552000
v 0.671490 -0.265000 0.662000
v 0.661490 -0.275000 0.662000
v 0.671490 -0.265000 0.652000
v 0.661490 -0.275000 0.652000
v 0.671490 -0.250000 0.652000
v 0.281490 -0.275000 0.652000
v 0.271490 -0.250000 0.652000
v 0.271490 -0.265000 0.652000
v 0.281490 -0.275000 0.662000
v 0.271490 -0.265000 0.662000
v 0.271490 0.265000 0.662000
v 0.281490 0.275000 0.662000
v 0.271490 0.265000 0.652000
v 0.281490 0.275000 0.652000
v 0.661490 0.275000 0.662000
v 0.661490 0.275000 0.652000
v 0.671490 0.265000 0.662000
v 0.671490 0.265000 0.652000
v 0.271490 0.250000 0.652000
v 0.671490 0.250000 0.652000
v 0.671490 -0.250000 0.552000
v -0.170510 -0.250000 0.552000
v -0.320510 -0.480000 0.552000
v -0.320510 0.480000 0.552000
v -0.170510 -0.480000 0.552000
v -0.170510 0.480000 0.552000
v -0.170510 0.250000 0.552000
v 0.671490 0.250000 0.552000
v -0.170510 -0.250000 0.652000
v -0.320510 -0.480000 0.652000
v -0.320510 0.480000 0.652000
v -0.170510 0.250000 0.652000
v -0.170510 0.480000 0.652000
v -0.170510 -0.480000 0.652000
v 0.191290 0.200000 0.648800
v 0.191290 0.200000 0.555200
v 0.191290 -0.200000 0.648800
v 0.191290 -0.200000 0.555200
v 0.147690 0.200000 0.555200
v 0.147690 -0.200000 0.555200
v 0.147690 0.200000 0.648800
v 0.147690 -0.200000 0.648800
v -0.173710 0.200000 0.555200
v -0.173710 0.200000 0.648800
v -0.317310 0.200000 0.555200
v -0.317310 0.200000 0.648800
v -0.317310 -0.200000 0.555200
v -0.317310 -0.200000 0.648800
v -0.173710 -0.200000 0.555200
v -0.173710 -0.200000 0.648800
v 0.641290 0.200000 0.648800
v 0.641290 0.200000 0.555200
v 0.641290 -0.200000 0.648800
v 0.641290 -0.200000 0.555200
v 0.597690 0.200000 0.555200
v 0.597690 -0.200000 0.555200
v 0.597690 0.200000 0.648800
v 0.597690 -0.200000 0.648800
vt -1.414214 -4.375000
vt 1.414214 -4.375000
vt -1.414214 -2.375000
vt 1.414214 -2.375000
vt -20.000000 -25.500000
vt -18.000000 -27.500000
vt -20.000000 -23.500000
vt 18.000000 -27.500000
vt 20.000000 -23.500000
vt 20.000000 -25.500000
vt 38.000000 2.000000
vt 2.000000 2.000000
vt 38.000000 0.000000
vt 2.000000 0.000000
vt -1.414214 -4.375000
vt 1.414214 -4.375000
vt -1.414214 -2.375000
vt 1.414214 -2.375000
vt 2.000000 0.000000
vt 38.000000 0.000000
vt 2.000000 2.000000
vt 38.000000 2.000000
vt -20.000000 25.500000
vt -20.000000 23.500000
vt -18.000000 27.500000
vt 20.000000 23.500000
vt 18.000000 27.500000
vt 20.000000 25.500000
vt -1.414214 -4.375000
vt 1.414214 -4.375000
vt -1.414214 -2.375000
vt 1.414214 -2.375000
vt -1.414214 -4.375000
vt 1.414214 -4.375000
vt -1.414214 -2.375000
vt 1.414214 -2.375000
vt 20.000000 -25.500000
vt 18.000000 27.500000
vt 18.000000 -27.500000
vt -18.000000 27.500000
vt -18.000000 -27.500000
vt -20.000000 -25.500000
vt -20.000000 25.500000
vt 20.000000 25.500000
vt 0.000000 0.000000
vt 6.000000 0.000000
vt 0.000000 40.000000
vt 6.000000 40.000000
vt 0.000000 0.000000
vt 40.000000 0.000000
vt 0.000000 40.000000
vt 40.000000 40.000000
vt 0.000000 0.000000
vt 6.000000 0.000000
vt 0.000000 40.000000
vt 6.000000 40.000000
vt 0.000000 0.000000
vt 3.500000 0.000000
vt 0.000000 40.000000
vt 3.500000 40.000000
vt 0.000000 0.000000
vt 9.500000 0.000000
vt 0.000000 40.000000
vt 9.500000 40.000000
vt 0.000000 0.000000
vt 9.500000 0.000000
vt 0.000000 40.000000
vt 9.500000 40.000000
vt 0.000000 0.000000
vt 3.500000 0.000000
vt 0.000000 40.000000
vt 3.500000 40.000000
vt 25.500000 -4.750000
vt 23.500000 -4.750000
vt 25.500000 -6.750000
vt -23.500000 -4.750000
vt -25.500000 -6.750000
vt -25.500000 -4.750000
vt 23.500000 4.750000
vt 20.000000 -1.250000
vt -20.000000 -1.250000
vt -23.500000 4.750000
vt -20.000000 4.750000
vt 20.000000 4.750000
vt 25.500000 -4.750000
vt 23.500000 -4.750000
vt 25.500000 -6.750000
vt -23.500000 -4.750000
vt -25.500000 -6.750000
vt -25.500000 -4.750000
vt 23.500000 4.750000
vt 20.000000 -1.250000
vt -20.000000 -1.250000
vt -23.500000 4.750000
vt -20.000000 4.750000
vt 20.000000 4.750000
vt 4.360000 98.879997
vt 0.000000 98.879997
vt 4.360000 0.320000
vt 0.000000 0.320000
vt 9.360000 98.879997
vt 0.000000 98.879997
vt 9.360000 0.320000
vt 0.000000 0.320000
vt -2.180000 -4.680000
vt 2.180000 -4.680000
vt -2.180000 4.680000
vt 2.180000 4.680000
vt 9.360000 98.879997
vt 0.000000 98.879997
vt 9.360000 0.320000
vt 0.000000 0.320000
vt 4.360000 98.879997
vt 0.000000 98.879997
vt 4.360000 0.320000
vt 0.000000 0.320000
vt -2.180000 -4.680000
vt 2.180000 -4.680000
vt -2.180000 4.680000
vt 2.180000 4.680000
vt 2.180000 4.680000
vt -2.180000 4.680000
vt 2.180000 -4.680000
vt -2.180000 -4.680000
vt 4.360000 98.879997
vt 0.000000 98.879997
vt 4.360000 0.320000
vt 0.000000 0.320000
vt 9.360000 98.879997
vt 0.000000 98.879997
vt 9.360000 0.320000
vt 0.000000 0.320000
vt 2.180000 4.680000
vt -2.180000 4.680000
vt 2.180000 -4.680000
vt -2.180000 -4.680000
vt 9.360000 98.879997
vt 0.000000 98.879997
vt 9.360000 0.320000
vt 0.000000 0.320000
vt 4.360000 98.879997
vt 0.000000 98.879997
vt 4.360000 0.320000
vt 0.000000 0.320000
vt 0.320000 0.320000
vt 9.680000 0.320000
vt 0.320000 14.680000
vt 9.680000 14.680000
vt 14.360000 22.680000
vt 0.000000 22.680000
vt 14.360000 0.000000
vt 0.000000 0.000000
vt 9.360000 22.680000
vt 0.000000 22.680000
vt 9.360000 0.000000
vt 0.000000 0.000000
vt 14.360000 22.680000
vt 0.000000 22.680000
vt 14.360000 0.000000
vt 0.000000 0.000000
vt 9.360000 22.680000
vt 0.000000 22.680000
vt 9.360000 0.000000
vt 0.000000 0.000000
vt 7.180000 4.680000
vt -7.180000 4.680000
vt 7.180000 -4.680000
vt -7.180000 -4.680000
vt -7.180000 -4.680000
vt 7.180000 -4.680000
vt -7.180000 4.680000
vt 7.180000 4.680000
vt -0.000000 22.680000
vt -9.360000 22.680000
vt -0.000000 0.000000
vt -9.360000 0.000000
vt -0.000000 22.680000
vt -14.360000 22.680000
vt -0.000000 0.000000
vt -14.360000 0.000000
vt -0.000000 22.680000
vt -9.360000 22.680000
vt -0.000000 0.000000
vt -9.360000 0.000000
vt -0.000000 22.680000
vt -14.360000 22.680000
vt -0.000000 0.000000
vt -14.360000 0.000000
vt 9.680000 14.680000
vt 0.320000 14.680000
vt 9.680000 0.320000
vt 0.320000 0.320000
vt 10.000000 20.000000
vt 0.000000 20.000000
vt 10.000000 -20.000000
vt 0.000000 -20.000000
vt 10.000000 20.000000
vt 0.000000 20.000000
vt 10.000000 -20.000000
vt 0.000000 -20.000000
vt 10.000000 20.000000
vt 0.000000 20.000000
vt 10.000000 -20.000000
vt 0.000000 -20.000000
vt 10.000000 20.000000
vt 0.000000 20.000000
vt 10.000000 -20.000000
vt 0.000000 -20.000000
vt 10.000000 20.000000
vt 0.000000 20.000000
vt 10.000000 -20.000000
vt 0.000000 -20.000000
vt -12.300000 -20.000000
vt 20.000000 -20.000000
vt -12.300000 20.000000
vt 20.000000 20.000000
vt -17.299999 20.000000
vt -20.000000 20.000000
vt -17.299999 -20.000000
vt -20.000000 -20.000000
vt 10.000000 46.500000
vt 0.000000 46.500000
vt 10.000000 15.000000
vt 0.000000 15.000000
vt 10.000000 91.500000
vt 0.000000 91.500000
vt 10.000000 59.200001
vt 0.000000 51.500000
vt 10.000000 51.500000
vt 0.000000 96.500000
vt 10.000000 96.500000
vt 0.000000 99.199997
vt 10.000000 99.199997
vt 10.000000 46.500000
vt 0.000000 46.500000
vt 10.000000 15.000000
vt 0.000000 15.000000
vt 0.000000 91.500000
vt 0.000000 59.200001
vt 10.000000 91.500000
vt 10.000000 51.500000
vt 0.000000 51.500000
vt 0.000000 96.500000
vt 10.000000 96.500000
vt 0.000000 99.199997
vt 10.000000 99.199997
vt 0.707107 3.500000
vt -0.707107 3.500000
vt 0.707107 2.500000
vt -0.707107 2.500000
vt -20.000000 -26.500000
vt -19.000000 -27.500000
vt -20.000000 -25.000000
vt 19.000000 -27.500000
vt 20.000000 -25.000000
vt 20.000000 -26.500000
vt 39.000000 1.000000
vt 1.000000 1.000000
vt 39.000000 0.000000
vt 1.000000 0.000000
vt 0.707107 1.000000
vt -0.707107 1.000000
vt 0.707107 0.000000
vt -0.707107 0.000000
vt 0.707107 1.000000
vt -0.707107 1.000000
vt 0.707107 0.000000
vt -0.707107 0.000000
vt 39.000000 1.000000
vt 1.000000 1.000000
vt 39.000000 0.000000
vt 1.000000 0.000000
vt 20.000000 -26.500000
vt 19.000000 27.500000
vt 19.000000 -27.500000
vt -19.000000 27.500000
vt -19.000000 -27.500000
vt -20.000000 -26.500000
vt -20.000000 26.500000
vt 20.000000 26.500000
vt 0.707107 3.500000
vt -0.707107 3.500000
vt 0.707107 2.500000
vt -0.707107 2.500000
vt 54.000000 0.000000
vt 54.000000 1.000000
vt 52.500000 0.000000
vt 47.500000 0.000000
vt 1.000000 1.000000
vt 7.500000 0.000000
vt 2.500000 0.000000
vt 1.000000 0.000000
vt 20.000000 26.500000
vt 19.000000 27.500000
vt 20.000000 25.000000
vt -19.000000 27.500000
vt -20.000000 25.000000
vt -20.000000 26.500000
vt 5.000000 99.199997
vt 0.000000 99.199997
vt 5.000000 96.500000
vt 5.000000 91.500000
vt 45.000000 91.500000
vt 5.000000 51.500000
vt 0.000000 15.000000
vt 5.000000 46.500000
vt 5.000000 15.000000
vt -23.000000 0.000000
vt 73.000000 0.000000
vt -23.000000 15.000000
vt 73.000000 15.000000
vt 50.000000 15.000000
vt 45.000000 15.000000
vt 50.000000 99.199997
vt 45.000000 51.500000
vt 45.000000 46.500000
vt 45.000000 99.199997
vt 45.000000 96.500000
vt 0.000000 15.000000
vt 10.000000 15.000000
vt 0.000000 59.200001
vt 10.000000 99.199997
vt 0.000000 99.199997
vt 0.000000 15.000000
vt 5.000000 15.000000
vt 0.000000 46.500000
vt 5.000000 59.200001
vt 0.000000 51.500000
vt 0.000000 59.200001
vt 28.000000 0.000000
vt -40.000000 15.000000
vt -68.000000 0.000000
vt -45.000000 15.000000
vt -68.000000 15.000000
vt -40.000000 46.500000
vt -45.000000 59.200001
vt -40.000000 51.500000
vt -40.000000 59.200001
vt 28.000000 15.000000
vt 25.500000 5.000000
vt -70.500000 5.000000
vt 25.500000 -5.000000
vt -70.500000 -5.000000
vt 10.000000 15.000000
vt 10.000000 59.200001
vt 0.000000 15.000000
vt 0.000000 99.199997
vt 10.000000 99.199997
vt -49.000000 5.000000
vt -47.500000 5.000000
vt -49.000000 6.000000
vt -42.500000 5.000000
vt -2.500000 5.000000
vt -47.500000 -5.000000
vt -42.500000 -5.000000
vt -2.500000 -5.000000
vt 2.500000 -5.000000
vt 2.500000 5.000000
vt 4.000000 6.000000
vt 4.000000 5.000000
vt -7.500000 -5.000000
vt 7.500000 -5.000000
vt -7.500000 5.000000
vt 7.500000 5.000000
vt 0.000000 0.000000
vt 10.000000 0.000000
vt 0.000000 23.000000
vt 10.000000 23.000000
vt -7.500000 -5.000000
vt 7.500000 -5.000000
vt -7.500000 5.000000
vt 7.500000 5.000000
vt -10.000000 0.000000
vt -0.000000 0.000000
vt -10.000000 23.000000
vt -0.000000 23.000000
vt 9.360000 20.000000
vt 0.000000 20.000000
vt 9.360000 -20.000000
vt 0.000000 -20.000000
vt 4.360000 20.000000
vt 0.000000 20.000000
vt 4.360000 -20.000000
vt 0.000000 -20.000000
vt 9.360000 20.000000
vt 0.000000 20.000000
vt 9.360000 -20.000000
vt 0.000000 -20.000000
vt 4.360000 20.000000
vt 0.000000 20.000000
vt 4.360000 -20.000000
vt 0.000000 -20.000000
vt 9.680000 51.180000
vt 0.320000 51.180000
vt 9.680000 46.820000
vt 0.320000 46.820000
vt 9.680000 51.180000
vt 0.320000 51.180000
vt 9.680000 46.820000
vt 0.320000 46.820000
vt 9.680000 14.680000
vt 0.320000 14.680000
vt 9.680000 0.320000
vt 0.320000 0.320000
vt 0.320000 0.320000
vt 9.680000 0.320000
vt 0.320000 14.680000
vt 9.680000 14.680000
vt 9.360000 20.000000
vt 0.000000 20.000000
vt 9.360000 -20.000000
vt 0.000000 -20.000000
vt 14.360000 20.000000
vt 0.000000 20.000000
vt 14.360000 -20.000000
vt 0.000000 -20.000000
vt 9.360000 20.000000
vt 0.000000 20.000000
vt 9.360000 -20.000000
vt 0.000000 -20.000000
vt 14.360000 20.000000
vt 0.000000 20.000000
vt 14.360000 -20.000000
vt 0.000000 -20.000000
vt 9.360000 20.000000
vt 0.000000 20.000000
vt 9.360000 -20.000000
vt 0.000000 -20.000000
vt 4.360000 20.000000
vt 0.000000 20.000000
vt 4.360000 -20.000000
vt 0.000000 -20.000000
vt 9.360000 20.000000
vt 0.000000 20.000000
vt 9.360000 -20.000000
vt 0.000000 -20.000000
vt 4.360000 20.000000
vt 0.000000 20.000000
vt 4.360000 -20.000000
vt 0.000000 -20.000000
vt 9.680000 96.180000
vt 0.320000 96.180000
vt 9.680000 91.820000
vt 0.320000 91.820000
vt 9.680000 96.180000
vt 0.320000 96.180000
vt 9.680000 91.820000
vt 0.320000 91.820000
vn -0.7071 -0.7071 0.0000
vn 0.0000 0.0000 1.0000
vn 0.0000 -1.0000 0.0000
vn -0.7071 0.7071 0.0000
vn 0.0000 1.0000 0.0000
vn 0.7071 0.7071 0.0000
vn 0.7071 -0.7071 0.0000
vn 0.0000 0.0000 -1.0000
vn 1.0000 0.0000 0.0000
vn -1.0000 0.0000 0.0000
usemtl 5,5,5.002
s 1
f 1/1/1 2/2/1 3/3/1
f 3/3/1 2/2/1 4/4/1
f 3/5/2 4/6/2 5/7/2
f 5/7/2 4/6/2 6/8/2
f 5/7/2 6/8/2 7/9/2
f 7/9/2 6/8/2 8/10/2
f 2/11/3 9/12/3 4/13/3
f 4/13/3 9/12/3 6/14/3
f 10/15/4 11/16/4 12/17/4
f 12/17/4 11/16/4 13/18/4
f 12/19/5 14/20/5 10/21/5
f 10/21/5 14/20/5 15/22/5
f 13/23/2 16/24/2 12/25/2
f 12/25/2 16/24/2 17/26/2
f 12/25/2 17/26/2 14/27/2
f 14/27/2 17/26/2 18/28/2
f 19/29/6 15/30/6 18/31/6
f 18/31/6 15/30/6 14/32/6
f 9/33/7 20/34/7 6/35/7
f 6/35/7 20/34/7 8/36/7
f 1/37/8 10/38/8 2/39/8
f 2/39/8 10/38/8 15/40/8
f 2/39/8 15/40/8 9/41/8
f 9/41/8 15/40/8 20/42/8
f 20/42/8 15/40/8 19/43/8
f 1/37/8 11/44/8 10/38/8
f 21/45/5 22/46/5 23/47/5
f 23/47/5 22/46/5 24/48/5
f 25/49/2 21/50/2 26/51/2
f 26/51/2 21/50/2 23/52/2
f 27/53/3 25/54/3 28/55/3
f 28/55/3 25/54/3 26/56/3
f 29/57/2 27/58/2 30/59/2
f 30/59/2 27/58/2 28/60/2
f 16/61/5 29/62/5 17/63/5
f 17/63/5 29/62/5 30/64/5
f 31/65/3 5/66/3 32/67/3
f 32/67/3 5/66/3 7/68/3
f 22/69/2 31/70/2 24/71/2
f 24/71/2 31/70/2 32/72/2
f 18/73/9 17/74/9 19/75/9
f 19/75/9 17/74/9 7/76/9
f 19/75/9 7/76/9 20/77/9
f 20/77/9 7/76/9 8/78/9
f 30/79/9 26/80/9 17/74/9
f 17/74/9 26/80/9 23/81/9
f 17/74/9 23/81/9 7/76/9
f 7/76/9 23/81/9 32/82/9
f 32/82/9 23/81/9 24/83/9
f 30/79/9 28/84/9 26/80/9
f 3/85/10 5/86/10 1/87/10
f 1/87/10 5/86/10 16/88/10
f 1/87/10 16/88/10 11/89/10
f 11/89/10 16/88/10 13/90/10
f 31/91/10 21/92/10 5/86/10
f 5/86/10 21/92/10 25/93/10
f 5/86/10 25/93/10 16/88/10
f 16/88/10 25/93/10 29/94/10
f 29/94/10 25/93/10 27/95/10
f 31/91/10 22/96/10 21/92/10
usemtl 46,138,87.002
f 33/97/2 34/98/2 35/99/2
f 35/99/2 34/98/2 36/100/2
f 34/101/3 37/102/3 36/103/3
f 36/103/3 37/102/3 38/104/3
f 35/105/9 36/106/9 39/107/9
f 39/107/9 36/106/9 38/108/9
f 40/109/5 33/110/5 39/111/5
f 39/111/5 33/110/5 35/112/5
f 37/113/8 40/114/8 38/115/8
f 38/115/8 40/114/8 39/116/8
f 34/117/10 33/118/10 37/119/10
f 37/119/10 33/118/10 40/120/10
f 41/121/10 42/122/10 43/123/10
f 43/123/10 42/122/10 44/124/10
f 43/125/2 44/126/2 45/127/2
f 45/127/2 44/126/2 46/128/2
f 44/129/3 42/130/3 46/131/3
f 46/131/3 42/130/3 47/132/3
f 47/133/9 48/134/9 46/135/9
f 46/135/9 48/134/9 45/136/9
f 41/137/5 43/138/5 48/139/5
f 48/139/5 43/138/5 45/140/5
f 42/141/8 41/142/8 47/143/8
f 47/143/8 41/142/8 48/144/8
f 49/145/3 50/146/3 51/147/3
f 51/147/3 50/146/3 52/148/3
f 53/149/2 54/150/2 50/151/2
f 50/151/2 54/150/2 52/152/2
f 55/153/9 53/154/9 49/155/9
f 49/155/9 53/154/9 50/156/9
f 56/157/8 55/158/8 51/159/8
f 51/159/8 55/158/8 49/160/8
f 54/161/10 56/162/10 52/163/10
f 52/163/10 56/162/10 51/164/10
f 55/165/5 56/166/5 53/167/5
f 53/167/5 56/166/5 54/168/5
f 57/169/3 58/170/3 59/171/3
f 59/171/3 58/170/3 60/172/3
f 60/173/10 58/174/10 61/175/10
f 61/175/10 58/174/10 62/176/10
f 59/177/8 60/178/8 63/179/8
f 63/179/8 60/178/8 61/180/8
f 57/181/9 59/182/9 64/183/9
f 64/183/9 59/182/9 63/184/9
f 58/185/2 57/186/2 62/187/2
f 62/187/2 57/186/2 64/188/2
f 61/189/5 62/190/5 63/191/5
f 63/191/5 62/190/5 64/192/5
f 65/193/9 66/194/9 67/195/9
f 67/195/9 66/194/9 68/196/9
f 69/197/10 70/198/10 71/199/10
f 71/199/10 70/198/10 72/200/10
f 73/201/10 74/202/10 75/203/10
f 75/203/10 74/202/10 76/204/10
f 77/205/9 78/206/9 79/207/9
f 79/207/9 78/206/9 80/208/9
f 81/209/9 82/210/9 83/211/9
f 83/211/9 82/210/9 84/212/9
f 71/213/8 85/214/8 69/215/8
f 69/215/8 85/214/8 86/216/8
f 66/217/8 87/218/8 68/219/8
f 68/219/8 87/218/8 88/220/8
f 75/221/5 76/222/5 84/223/5
f 84/223/5 76/222/5 83/224/5
f 71/225/5 72/226/5 85/227/5
f 85/227/5 72/226/5 79/228/5
f 85/227/5 79/228/5 80/229/5
f 67/230/5 68/231/5 89/232/5
f 89/232/5 68/231/5 88/233/5
f 74/234/3 73/235/3 81/236/3
f 81/236/3 73/235/3 82/237/3
f 69/238/3 86/239/3 70/240/3
f 70/240/3 86/239/3 77/241/3
f 77/241/3 86/239/3 78/242/3
f 66/243/3 65/244/3 87/245/3
f 87/245/3 65/244/3 90/246/3
f 91/247/7 92/248/7 93/249/7
f 93/249/7 92/248/7 94/250/7
f 93/251/8 94/252/8 95/253/8
f 95/253/8 94/252/8 96/254/8
f 95/253/8 96/254/8 97/255/8
f 97/255/8 96/254/8 98/256/8
f 92/257/3 99/258/3 94/259/3
f 94/259/3 99/258/3 96/260/3
f 99/261/1 100/262/1 96/263/1
f 96/263/1 100/262/1 98/264/1
f 101/265/4 102/266/4 103/267/4
f 103/267/4 102/266/4 104/268/4
f 102/269/5 105/270/5 104/271/5
f 104/271/5 105/270/5 106/272/5
f 91/273/2 105/274/2 92/275/2
f 92/275/2 105/274/2 102/276/2
f 92/275/2 102/276/2 99/277/2
f 99/277/2 102/276/2 100/278/2
f 100/278/2 102/276/2 101/279/2
f 91/273/2 107/280/2 105/274/2
f 105/281/6 107/282/6 106/283/6
f 106/283/6 107/282/6 108/284/6
f 98/285/10 100/286/10 97/287/10
f 97/287/10 100/286/10 85/288/10
f 85/288/10 100/286/10 101/289/10
f 85/288/10 101/289/10 86/290/10
f 86/290/10 101/289/10 109/291/10
f 109/291/10 101/289/10 103/292/10
f 103/293/8 104/294/8 109/295/8
f 109/295/8 104/294/8 106/296/8
f 109/295/8 106/296/8 110/297/8
f 110/297/8 106/296/8 108/298/8
f 89/299/8 111/300/8 67/301/8
f 67/301/8 111/300/8 72/302/8
f 67/301/8 72/302/8 70/303/8
f 72/302/8 111/300/8 79/304/8
f 79/304/8 111/300/8 112/305/8
f 79/304/8 112/305/8 76/306/8
f 76/306/8 112/305/8 83/307/8
f 83/307/8 112/305/8 113/308/8
f 83/307/8 113/308/8 114/309/8
f 112/305/8 115/310/8 113/308/8
f 116/311/8 117/312/8 114/309/8
f 114/309/8 117/312/8 81/313/8
f 114/309/8 81/313/8 83/307/8
f 118/314/8 77/315/8 117/312/8
f 117/312/8 77/315/8 74/316/8
f 117/312/8 74/316/8 81/313/8
f 90/317/8 65/318/8 118/314/8
f 118/314/8 65/318/8 70/303/8
f 118/314/8 70/303/8 77/315/8
f 65/318/8 67/301/8 70/303/8
f 77/315/8 79/304/8 74/316/8
f 74/316/8 79/304/8 76/306/8
f 119/319/3 112/320/3 97/321/3
f 97/321/3 112/320/3 111/322/3
f 97/321/3 111/322/3 95/323/3
f 84/324/2 119/325/2 75/326/2
f 75/326/2 119/325/2 97/327/2
f 75/326/2 97/327/2 80/328/2
f 80/328/2 97/327/2 85/329/2
f 119/325/2 84/324/2 120/330/2
f 120/330/2 84/324/2 82/331/2
f 120/330/2 82/331/2 121/332/2
f 121/332/2 82/331/2 122/333/2
f 121/332/2 122/333/2 123/334/2
f 82/331/2 73/335/2 122/333/2
f 122/333/2 73/335/2 109/336/2
f 109/336/2 73/335/2 78/337/2
f 109/336/2 78/337/2 86/338/2
f 73/335/2 75/326/2 78/337/2
f 78/337/2 75/326/2 80/328/2
f 120/330/2 124/339/2 119/325/2
f 120/340/10 121/341/10 113/342/10
f 113/342/10 121/341/10 114/343/10
f 122/344/5 109/345/5 117/346/5
f 117/346/5 109/345/5 118/347/5
f 118/347/5 109/345/5 110/348/5
f 93/349/9 95/350/9 91/351/9
f 91/351/9 95/350/9 88/352/9
f 91/351/9 88/352/9 87/353/9
f 111/354/9 89/355/9 95/350/9
f 95/350/9 89/355/9 88/352/9
f 90/356/9 118/357/9 87/353/9
f 87/353/9 118/357/9 110/358/9
f 87/353/9 110/358/9 107/359/9
f 107/359/9 110/358/9 108/360/9
f 107/359/9 91/351/9 87/353/9
f 113/361/3 115/362/3 120/363/3
f 120/363/3 115/362/3 124/364/3
f 112/365/9 119/366/9 115/367/9
f 115/367/9 119/366/9 124/368/9
f 116/369/5 114/370/5 123/371/5
f 123/371/5 114/370/5 121/372/5
f 122/373/9 117/374/9 123/375/9
f 123/375/9 117/374/9 116/376/9
f 125/377/10 126/378/10 127/379/10
f 127/379/10 126/378/10 128/380/10
f 126/381/2 129/382/2 128/383/2
f 128/383/2 129/382/2 130/384/2
f 129/385/9 131/386/9 130/387/9
f 130/387/9 131/386/9 132/388/9
f 131/389/8 125/390/8 132/391/8
f 132/391/8 125/390/8 127/392/8
f 127/393/5 128/394/5 132/395/5
f 132/395/5 128/394/5 130/396/5
f 126/397/3 125/398/3 129/399/3
f 129/399/3 125/398/3 131/400/3
f 133/401/3 134/402/3 135/403/3
f 135/403/3 134/402/3 136/404/3
f 137/405/5 138/406/5 139/407/5
f 139/407/5 138/406/5 140/408/5
f 134/409/10 133/410/10 140/411/10
f 140/411/10 133/410/10 139/412/10
f 136/413/8 134/414/8 138/415/8
f 138/415/8 134/414/8 140/416/8
f 135/417/9 136/418/9 137/419/9
f 137/419/9 136/418/9 138/420/9
f 133/421/2 135/422/2 139/423/2
f 139/423/2 135/422/2 137/424/2
f 141/425/10 142/426/10 143/427/10
f 143/427/10 142/426/10 144/428/10
f 142/429/2 145/430/2 144/431/2
f 144/431/2 145/430/2 146/432/2
f 145/433/9 147/434/9 146/435/9
f 146/435/9 147/434/9 148/436/9
f 147/437/8 141/438/8 148/439/8
f 148/439/8 141/438/8 143/440/8
f 143/441/5 144/442/5 148/443/5
f 148/443/5 144/442/5 146/444/5
f 142/445/3 141/446/3 145/447/3
f 145/447/3 141/446/3 147/448/3
