# Blender v2.92.0 OBJ File: ''
# www.blender.org
mtllib battery_s.mtl
o battery_s.001
v 0.270000 -0.250000 -0.000030
v -0.130000 -0.250000 -0.000030
v 0.270000 -0.250000 0.019970
v -0.130000 -0.250000 0.019970
v -0.130000 -0.200000 -0.000030
v -0.130000 -0.200000 0.019970
v 0.270000 -0.200000 -0.000030
v 0.270000 -0.200000 0.019970
v 0.270000 0.200000 -0.000030
v -0.130000 0.200000 -0.000030
v 0.270000 0.200000 0.019970
v -0.130000 0.200000 0.019970
v -0.130000 0.250000 -0.000030
v -0.130000 0.250000 0.019970
v 0.270000 0.250000 -0.000030
v 0.270000 0.250000 0.019970
v -0.270000 -0.480000 -0.000030
v -0.270000 0.480000 -0.000030
v 0.270000 -0.480000 -0.000030
v 0.270000 0.480000 -0.000030
v -0.095000 0.455000 0.221970
v -0.095000 0.455000 0.196970
v 0.095000 0.455000 0.221970
v 0.095000 0.455000 0.196970
v -0.095000 0.480000 0.196970
v 0.095000 0.480000 0.196970
v -0.095000 -0.480000 0.196970
v -0.095000 -0.455000 0.196970
v 0.095000 -0.480000 0.196970
v 0.095000 -0.455000 0.196970
v -0.095000 -0.455000 0.221970
v 0.095000 -0.455000 0.221970
v -0.095000 0.480000 0.161970
v -0.095000 0.420000 0.161970
v -0.095000 0.420000 0.221970
v -0.270000 0.480000 0.221970
v 0.270000 0.480000 0.221970
v 0.095000 0.480000 0.161970
v -0.095000 -0.420000 0.221970
v -0.095000 -0.420000 0.161970
v -0.095000 -0.480000 0.161970
v 0.095000 -0.420000 0.221970
v 0.095000 -0.420000 0.161970
v 0.095000 -0.480000 0.161970
v 0.095000 0.420000 0.161970
v 0.095000 0.420000 0.221970
v -0.270000 -0.480000 0.221970
v 0.270000 -0.480000 0.221970
vt -40.000000 0.000000
vt -0.000000 0.000000
vt -40.000000 2.000000
vt -0.000000 2.000000
vt -5.000000 0.000000
vt -0.000000 0.000000
vt -5.000000 2.000000
vt -0.000000 2.000000
vt -40.000000 0.000000
vt -0.000000 0.000000
vt -40.000000 2.000000
vt -0.000000 2.000000
vt 20.000000 2.500000
vt -20.000000 2.500000
vt 20.000000 -2.500000
vt -20.000000 -2.500000
vt -40.000000 0.000000
vt -0.000000 0.000000
vt -40.000000 2.000000
vt -0.000000 2.000000
vt -5.000000 0.000000
vt -0.000000 0.000000
vt -5.000000 2.000000
vt -0.000000 2.000000
vt -40.000000 0.000000
vt -0.000000 0.000000
vt -40.000000 2.000000
vt -0.000000 2.000000
vt 20.000000 2.500000
vt -20.000000 2.500000
vt 20.000000 -2.500000
vt -20.000000 -2.500000
vt -27.000000 -20.000000
vt 13.000000 -20.000000
vt -27.000000 20.000000
vt 13.000000 20.000000
vt 27.000000 -48.000000
vt 27.000000 48.000000
vt 13.000000 -25.000000
vt -27.000000 -48.000000
vt -27.000000 -25.000000
vt 13.000000 25.000000
vt -27.000000 48.000000
vt -27.000000 25.000000
vt 0.000000 -9.500000
vt 2.500000 -9.500000
vt 0.000000 9.500000
vt 2.500000 9.500000
vt 0.000000 -9.500000
vt 2.500000 -9.500000
vt 0.000000 9.500000
vt 2.500000 9.500000
vt 0.000000 -9.500000
vt 2.500000 -9.500000
vt 0.000000 9.500000
vt 2.500000 9.500000
vt 0.000000 -9.500000
vt 2.500000 -9.500000
vt 0.000000 9.500000
vt 2.500000 9.500000
vt -0.500000 3.000000
vt -0.500000 0.500000
vt 3.000000 3.000000
vt 3.000000 -3.000000
vt -3.000000 -3.000000
vt -3.000000 0.500000
vt 36.500000 16.200001
vt 54.000000 22.200001
vt 36.500000 19.700001
vt 0.000000 22.200001
vt 17.500000 19.700001
vt 17.500000 16.200001
vt 0.000000 0.000000
vt 54.000000 0.000000
vt -3.000000 -0.500000
vt -0.500000 -0.500000
vt -3.000000 3.000000
vt 3.000000 3.000000
vt 3.000000 -3.000000
vt -0.500000 -3.000000
vt -6.000000 -9.500000
vt -0.000000 -9.500000
vt -6.000000 9.500000
vt -0.000000 9.500000
vt -6.000000 -9.500000
vt -0.000000 -9.500000
vt -6.000000 9.500000
vt -0.000000 9.500000
vt 3.000000 -0.500000
vt 3.000000 3.000000
vt 0.500000 -0.500000
vt -3.000000 3.000000
vt -3.000000 -3.000000
vt 0.500000 -3.000000
vt -6.000000 -9.500000
vt -0.000000 -9.500000
vt -6.000000 9.500000
vt -0.000000 9.500000
vt -6.000000 -9.500000
vt -0.000000 -9.500000
vt -6.000000 9.500000
vt -0.000000 9.500000
vt 0.500000 3.000000
vt -3.000000 3.000000
vt 0.500000 0.500000
vt -3.000000 -3.000000
vt 3.000000 -3.000000
vt 3.000000 0.500000
vt 0.000000 22.200001
vt 36.500000 19.700001
vt 54.000000 22.200001
vt 36.500000 16.200001
vt 54.000000 0.000000
vt 17.500000 16.200001
vt 0.000000 0.000000
vt 17.500000 19.700001
vt 0.000000 0.000000
vt 96.000000 0.000000
vt 0.000000 22.200001
vt 96.000000 22.200001
vt 28.000000 0.000000
vt 68.000000 0.000000
vt 28.000000 2.000000
vt 68.000000 2.000000
vt 0.000000 22.200001
vt 96.000000 22.200001
vt 73.000000 2.000000
vt 96.000000 0.000000
vt 73.000000 0.000000
vt 23.000000 2.000000
vt 0.000000 0.000000
vt 23.000000 0.000000
vt -27.000000 48.000000
vt 9.500000 45.500000
vt 27.000000 48.000000
vt 9.500000 42.000000
vt 27.000000 -48.000000
vt 9.500000 -42.000000
vt 9.500000 -45.500000
vt -27.000000 -48.000000
vt -9.500000 42.000000
vt -9.500000 45.500000
vt -9.500000 -45.500000
vt -9.500000 -42.000000
vn 0.0000 1.0000 0.0000
vn 1.0000 0.0000 0.0000
vn 0.0000 -1.0000 0.0000
vn 0.0000 0.0000 -1.0000
vn 0.0000 0.0000 1.0000
vn -1.0000 0.0000 0.0000
usemtl 1,62,241.003
s 1
f 1/1/1 2/2/1 3/3/1
f 3/3/1 2/2/1 4/4/1
f 2/5/2 5/6/2 4/7/2
f 4/7/2 5/6/2 6/8/2
f 5/9/3 7/10/3 6/11/3
f 6/11/3 7/10/3 8/12/3
f 6/13/4 8/14/4 4/15/4
f 4/15/4 8/14/4 3/16/4
f 9/17/1 10/18/1 11/19/1
f 11/19/1 10/18/1 12/20/1
f 10/21/2 13/22/2 12/23/2
f 12/23/2 13/22/2 14/24/2
f 13/25/3 15/26/3 14/27/3
f 14/27/3 15/26/3 16/28/3
f 14/29/4 16/30/4 12/31/4
f 12/31/4 16/30/4 11/32/4
f 7/33/4 5/34/4 9/35/4
f 9/35/4 5/34/4 10/36/4
f 10/36/4 5/34/4 17/37/4
f 10/36/4 17/37/4 18/38/4
f 5/34/4 2/39/4 17/37/4
f 17/37/4 2/39/4 19/40/4
f 19/40/4 2/39/4 1/41/4
f 10/36/4 18/38/4 13/42/4
f 13/42/4 18/38/4 20/43/4
f 13/42/4 20/43/4 15/44/4
f 21/45/3 22/46/3 23/47/3
f 23/47/3 22/46/3 24/48/3
f 22/49/4 25/50/4 24/51/4
f 24/51/4 25/50/4 26/52/4
f 27/53/4 28/54/4 29/55/4
f 29/55/4 28/54/4 30/56/4
f 28/57/1 31/58/1 30/59/1
f 30/59/1 31/58/1 32/60/1
f 25/61/2 22/62/2 33/63/2
f 33/63/2 22/62/2 34/64/2
f 34/64/2 22/62/2 35/65/2
f 35/65/2 22/62/2 21/66/2
f 33/67/1 36/68/1 25/69/1
f 25/69/1 36/68/1 37/70/1
f 25/69/1 37/70/1 26/71/1
f 26/71/1 37/70/1 38/72/1
f 38/72/1 37/70/1 20/73/1
f 38/72/1 20/73/1 18/74/1
f 36/68/1 33/67/1 18/74/1
f 18/74/1 33/67/1 38/72/1
f 31/75/2 28/76/2 39/77/2
f 39/77/2 28/76/2 40/78/2
f 40/78/2 28/76/2 41/79/2
f 41/79/2 28/76/2 27/80/2
f 39/81/3 40/82/3 42/83/3
f 42/83/3 40/82/3 43/84/3
f 40/85/5 41/86/5 43/87/5
f 43/87/5 41/86/5 44/88/5
f 32/89/6 42/90/6 30/91/6
f 30/91/6 42/90/6 43/92/6
f 30/91/6 43/92/6 44/93/6
f 44/93/6 29/94/6 30/91/6
f 34/95/1 35/96/1 45/97/1
f 45/97/1 35/96/1 46/98/1
f 33/99/5 34/100/5 38/101/5
f 38/101/5 34/100/5 45/102/5
f 26/103/6 38/104/6 24/105/6
f 24/105/6 38/104/6 45/106/6
f 24/105/6 45/106/6 46/107/6
f 46/107/6 23/108/6 24/105/6
f 47/109/3 29/110/3 48/111/3
f 48/111/3 29/110/3 44/112/3
f 48/111/3 44/112/3 19/113/3
f 19/113/3 44/112/3 41/114/3
f 19/113/3 41/114/3 17/115/3
f 17/115/3 41/114/3 47/109/3
f 47/109/3 41/114/3 27/116/3
f 47/109/3 27/116/3 29/110/3
f 18/117/6 17/118/6 36/119/6
f 36/119/6 17/118/6 47/120/6
f 7/121/2 9/122/2 8/123/2
f 8/123/2 9/122/2 11/124/2
f 8/123/2 11/124/2 48/125/2
f 48/125/2 11/124/2 37/126/2
f 37/126/2 11/124/2 16/127/2
f 37/126/2 16/127/2 20/128/2
f 20/128/2 16/127/2 15/129/2
f 8/123/2 48/125/2 3/130/2
f 3/130/2 48/125/2 19/131/2
f 3/130/2 19/131/2 1/132/2
f 36/133/5 23/134/5 37/135/5
f 37/135/5 23/134/5 46/136/5
f 37/135/5 46/136/5 48/137/5
f 48/137/5 46/136/5 42/138/5
f 48/137/5 42/138/5 32/139/5
f 47/140/5 35/141/5 36/133/5
f 36/133/5 35/141/5 21/142/5
f 36/133/5 21/142/5 23/134/5
f 48/137/5 31/143/5 47/140/5
f 47/140/5 31/143/5 39/144/5
f 47/140/5 39/144/5 35/141/5
f 35/141/5 39/144/5 42/138/5
f 35/141/5 42/138/5 46/136/5
f 32/139/5 31/143/5 48/137/5
