# Blender v2.92.0 OBJ File: ''
# www.blender.org
mtllib chuck_s_L.mtl
o chuck_s_L.001
v 0.280000 -0.560000 0.468000
v 0.290000 -0.550000 0.468000
v 0.280000 -0.560000 0.488000
v 0.290000 -0.550000 0.488000
v 0.290000 -0.500000 0.468000
v 0.290000 -0.480000 0.488000
v 0.290000 -0.480000 0.447000
v 0.290000 -0.500000 0.427000
v 0.290000 -0.450000 0.427000
v 0.290000 -0.450000 0.447000
v 0.130000 -0.550000 0.468000
v 0.140000 -0.560000 0.468000
v 0.130000 -0.500000 0.468000
v 0.140000 -0.560000 0.488000
v 0.130000 -0.550000 0.488000
v 0.130000 -0.480000 0.488000
v 0.130000 -0.480000 0.447000
v 0.130000 -0.450000 0.447000
v 0.130000 -0.450000 0.427000
v 0.130000 -0.500000 0.427000
v 0.280000 -0.440000 0.447000
v 0.280000 -0.440000 0.427000
v 0.140000 -0.440000 0.447000
v 0.140000 -0.440000 0.427000
v 0.350979 -0.450000 0.600820
v 0.350979 -0.500000 0.600820
v 0.350000 -0.450000 0.607000
v 0.350000 -0.500000 0.607000
v 0.350979 -0.450000 0.613180
v 0.350979 -0.500000 0.613180
v 0.353820 -0.450000 0.618756
v 0.353820 -0.500000 0.618756
v 0.358244 -0.450000 0.623180
v 0.358244 -0.500000 0.623180
v 0.363820 -0.450000 0.626021
v 0.363820 -0.500000 0.626021
v 0.370000 -0.450000 0.627000
v 0.370000 -0.500000 0.627000
v 0.376180 -0.450000 0.626021
v 0.376180 -0.500000 0.626021
v 0.381756 -0.450000 0.623180
v 0.381756 -0.500000 0.623180
v 0.386180 -0.450000 0.618756
v 0.386180 -0.500000 0.618756
v 0.389021 -0.450000 0.613180
v 0.389021 -0.500000 0.613180
v 0.390000 -0.450000 0.607000
v 0.390000 -0.500000 0.607000
v 0.389021 -0.450000 0.600820
v 0.389021 -0.500000 0.600820
v 0.386180 -0.450000 0.595244
v 0.386180 -0.500000 0.595244
v 0.381756 -0.450000 0.590820
v 0.381756 -0.500000 0.590820
v 0.376180 -0.450000 0.587979
v 0.376180 -0.500000 0.587979
v 0.370000 -0.450000 0.587000
v 0.370000 -0.500000 0.587000
v 0.363820 -0.450000 0.587979
v 0.363820 -0.500000 0.587979
v 0.358244 -0.450000 0.590820
v 0.358244 -0.500000 0.590820
v 0.353820 -0.450000 0.595244
v 0.353820 -0.500000 0.595244
v 0.420979 -0.450000 0.600820
v 0.420979 -0.500000 0.600820
v 0.420000 -0.450000 0.607000
v 0.420000 -0.500000 0.607000
v 0.420979 -0.450000 0.613180
v 0.420979 -0.500000 0.613180
v 0.423820 -0.450000 0.618756
v 0.423820 -0.500000 0.618756
v 0.428244 -0.450000 0.623180
v 0.428244 -0.500000 0.623180
v 0.433820 -0.450000 0.626021
v 0.433820 -0.500000 0.626021
v 0.440000 -0.450000 0.627000
v 0.440000 -0.500000 0.627000
v 0.446180 -0.450000 0.626021
v 0.446180 -0.500000 0.626021
v 0.451756 -0.450000 0.623180
v 0.451756 -0.500000 0.623180
v 0.456180 -0.450000 0.618756
v 0.456180 -0.500000 0.618756
v 0.459021 -0.450000 0.613180
v 0.459021 -0.500000 0.613180
v 0.460000 -0.450000 0.607000
v 0.460000 -0.500000 0.607000
v 0.459021 -0.450000 0.600820
v 0.459021 -0.500000 0.600820
v 0.456180 -0.450000 0.595244
v 0.456180 -0.500000 0.595244
v 0.451756 -0.450000 0.590820
v 0.451756 -0.500000 0.590820
v 0.446180 -0.450000 0.587979
v 0.446180 -0.500000 0.587979
v 0.440000 -0.450000 0.587000
v 0.440000 -0.500000 0.587000
v 0.433820 -0.450000 0.587979
v 0.433820 -0.500000 0.587979
v 0.428244 -0.450000 0.590820
v 0.428244 -0.500000 0.590820
v 0.423820 -0.450000 0.595244
v 0.423820 -0.500000 0.595244
v 0.470000 -0.560000 0.427000
v 0.470000 -0.500000 0.427000
v 0.480000 -0.560000 0.437000
v 0.480000 -0.500000 0.437000
v 0.330000 -0.500000 0.657000
v 0.330000 -0.500000 0.468000
v 0.480000 -0.500000 0.657000
v 0.140000 -0.500000 0.427000
v 0.140000 -0.500000 0.468000
v 0.130000 -0.550000 0.427000
v 0.130000 -0.510000 0.427000
v 0.140000 -0.560000 0.427000
v 0.330000 -0.320000 0.687000
v 0.340000 -0.310000 0.687000
v 0.330000 -0.320000 0.657000
v 0.340000 -0.310000 0.657000
v 0.470000 -0.310000 0.687000
v 0.470000 -0.310000 0.657000
v 0.330000 -0.560000 0.687000
v 0.480000 -0.560000 0.687000
v 0.480000 -0.320000 0.687000
v 0.480000 -0.320000 0.657000
v 0.130000 -0.510000 0.468000
v 0.130000 -0.550000 0.468000
v 0.140000 -0.560000 0.468000
v 0.330000 -0.560000 0.468000
vt -0.707107 0.525000
vt 0.707107 0.525000
vt -0.707107 2.525000
vt 0.707107 2.525000
vt -5.000000 1.050000
vt 0.000000 1.050000
vt -5.000000 3.050000
vt 2.000000 3.050000
vt 2.000000 -1.050000
vt 0.000000 -3.050000
vt 5.000000 -3.050000
vt 5.000000 -1.050000
vt 0.000000 -8.000000
vt 5.000000 -8.000000
vt 5.000000 8.000000
vt 6.000000 -7.000000
vt 6.000000 7.000000
vt 0.000000 8.000000
vt 0.707107 2.525000
vt -0.707107 2.525000
vt 0.707107 0.525000
vt -0.707107 0.525000
vt 5.000000 1.050000
vt 5.000000 3.050000
vt 0.000000 1.050000
vt -2.000000 3.050000
vt -2.000000 -1.050000
vt -5.000000 -1.050000
vt -5.000000 -3.050000
vt 0.000000 -3.050000
vt 0.707107 -0.525000
vt -0.707107 -0.525000
vt 0.707107 -2.525000
vt -0.707107 -2.525000
vt 0.000000 -7.000000
vt 2.000000 -7.000000
vt 0.000000 7.000000
vt 2.000000 7.000000
vt 0.000000 7.000000
vt 0.000000 -7.000000
vt 1.000000 8.000000
vt 1.000000 -8.000000
vt 6.000000 -8.000000
vt 6.000000 8.000000
vt -0.707107 -2.525000
vt 0.707107 -2.525000
vt -0.707107 -0.525000
vt 0.707107 -0.525000
vt 4.100000 8.000000
vt 0.000000 8.000000
vt 4.100000 -8.000000
vt 0.000000 -8.000000
vt 0.000000 -8.000000
vt 3.000000 -8.000000
vt 3.000000 8.000000
vt 4.000000 -7.000000
vt 4.000000 7.000000
vt 0.000000 8.000000
vt 4.100000 8.000000
vt 0.000000 8.000000
vt 4.100000 -8.000000
vt 0.000000 -8.000000
vt 0.000000 7.000000
vt 0.000000 -7.000000
vt 1.000000 8.000000
vt 1.000000 -8.000000
vt 8.000000 -8.000000
vt 8.000000 8.000000
vt 0.000000 -7.000000
vt 2.000000 -7.000000
vt 0.000000 7.000000
vt 2.000000 7.000000
vt -5.000000 -0.628319
vt -0.000000 -0.628319
vt -5.000000 0.000000
vt -0.000000 0.000000
vt -5.000000 0.628319
vt -0.000000 0.628319
vt -5.000000 1.256637
vt -0.000000 1.256637
vt -5.000000 1.884956
vt -0.000000 1.884956
vt -5.000000 2.513274
vt -0.000000 2.513274
vt -5.000000 3.141593
vt -0.000000 3.141593
vt -5.000000 3.769911
vt -0.000000 3.769911
vt -5.000000 4.398230
vt -0.000000 4.398230
vt -5.000000 5.026548
vt -0.000000 5.026548
vt -5.000000 5.654867
vt -0.000000 5.654867
vt -5.000000 6.283185
vt -0.000000 6.283185
vt -5.000000 -6.283185
vt -0.000000 -6.283185
vt -5.000000 -5.654867
vt -0.000000 -5.654867
vt -5.000000 -5.026548
vt -0.000000 -5.026548
vt -5.000000 -4.398230
vt -0.000000 -4.398230
vt -5.000000 -3.769911
vt -0.000000 -3.769911
vt -5.000000 -3.141593
vt -0.000000 -3.141593
vt -5.000000 -2.513274
vt -0.000000 -2.513274
vt -5.000000 -1.884956
vt -0.000000 -1.884956
vt -5.000000 -1.256637
vt -0.000000 -1.256637
vt 1.902113 0.618034
vt -1.902113 0.618034
vt 2.000000 0.000000
vt -2.000000 0.000000
vt 1.902113 -0.618034
vt -1.902113 -0.618034
vt 1.618034 -1.175570
vt -1.618034 -1.175570
vt 1.175570 -1.618034
vt -1.175570 -1.618034
vt 0.618034 -1.902113
vt -0.618034 -1.902113
vt 0.000000 -2.000000
vt -1.618034 1.175570
vt 1.618034 1.175570
vt -1.175570 1.618034
vt 1.175570 1.618034
vt -0.618034 1.902113
vt 0.618034 1.902113
vt 0.000000 2.000000
vt -5.000000 -0.628319
vt -0.000000 -0.628319
vt -5.000000 0.000000
vt -0.000000 0.000000
vt -5.000000 0.628319
vt -0.000000 0.628319
vt -5.000000 1.256637
vt -0.000000 1.256637
vt -5.000000 1.884956
vt -0.000000 1.884956
vt -5.000000 2.513274
vt -0.000000 2.513274
vt -5.000000 3.141593
vt -0.000000 3.141593
vt -5.000000 3.769911
vt -0.000000 3.769911
vt -5.000000 4.398230
vt -0.000000 4.398230
vt -5.000000 5.026548
vt -0.000000 5.026548
vt -5.000000 5.654867
vt -0.000000 5.654867
vt -5.000000 6.283185
vt -0.000000 6.283185
vt -5.000000 -6.283185
vt -0.000000 -6.283185
vt -5.000000 -5.654867
vt -0.000000 -5.654867
vt -5.000000 -5.026548
vt -0.000000 -5.026548
vt -5.000000 -4.398230
vt -0.000000 -4.398230
vt -5.000000 -3.769911
vt -0.000000 -3.769911
vt -5.000000 -3.141593
vt -0.000000 -3.141593
vt -5.000000 -2.513274
vt -0.000000 -2.513274
vt -5.000000 -1.884956
vt -0.000000 -1.884956
vt -5.000000 -1.256637
vt -0.000000 -1.256637
vt 1.902113 0.618034
vt -1.902113 0.618034
vt 2.000000 0.000000
vt -2.000000 0.000000
vt 1.902113 -0.618034
vt -1.902113 -0.618034
vt 1.618034 -1.175570
vt -1.618034 -1.175570
vt 1.175570 -1.618034
vt -1.175570 -1.618034
vt 0.618034 -1.902113
vt -0.618034 -1.902113
vt 0.000000 -2.000000
vt -1.618034 1.175570
vt 1.618034 1.175570
vt -1.175570 1.618034
vt 1.175570 1.618034
vt -0.618034 1.902113
vt 0.618034 1.902113
vt 0.000000 2.000000
vt -6.000000 -0.707107
vt 0.000000 -0.707107
vt -6.000000 0.707107
vt 0.000000 0.707107
vt -4.597887 7.118034
vt -4.500000 6.500000
vt -2.500000 11.500000
vt -4.597887 5.881966
vt -2.500000 -7.400000
vt -4.881966 5.324430
vt -5.324430 4.881966
vt -5.881966 4.597887
vt -6.500000 4.500000
vt -7.118034 4.597887
vt -7.675570 4.881966
vt -12.324430 4.881966
vt -12.881966 4.597887
vt -13.500000 4.500000
vt -17.500000 -10.500000
vt -14.118034 4.597887
vt -14.675570 4.881966
vt -11.881966 5.324430
vt -8.118034 5.324430
vt -11.597887 5.881966
vt -8.402113 5.881966
vt -11.500000 6.500000
vt -8.500000 6.500000
vt -11.597887 7.118034
vt -8.402113 7.118034
vt -11.881966 7.675570
vt -8.118034 7.675570
vt -12.324430 8.118034
vt -7.675570 8.118034
vt -12.881966 8.402113
vt -7.118034 8.402113
vt -17.500000 11.500000
vt -6.500000 8.500000
vt -5.881966 8.402113
vt -5.324430 8.118034
vt -4.881966 7.675570
vt -15.118034 5.324430
vt -15.402113 5.881966
vt -15.500000 6.500000
vt -15.402113 7.118034
vt -15.118034 7.675570
vt -14.675570 8.118034
vt -14.118034 8.402113
vt -13.500000 8.500000
vt -16.500000 -11.500000
vt 16.500000 -11.500000
vt 16.500000 -7.400000
vt 34.000000 6.000000
vt 0.000000 5.000000
vt 34.000000 0.000000
vt 0.000000 1.000000
vt 1.000000 0.000000
vt 1.000000 6.000000
vt 0.707107 3.000000
vt -0.707107 3.000000
vt 0.707107 0.000000
vt -0.707107 0.000000
vt 14.000000 3.000000
vt 1.000000 3.000000
vt 14.000000 0.000000
vt 1.000000 0.000000
vt -11.500000 -7.500000
vt 12.500000 -7.500000
vt -12.500000 -6.500000
vt -12.500000 6.500000
vt 12.500000 7.500000
vt -11.500000 7.500000
vt 0.707107 14.500000
vt -0.707107 14.500000
vt 0.707107 11.500000
vt -0.707107 11.500000
vt 11.500000 -7.500000
vt 12.500000 -6.500000
vt -6.500000 -7.500000
vt 12.500000 6.500000
vt -6.500000 7.500000
vt 11.500000 7.500000
vt -0.707107 -7.800000
vt 0.707107 -7.800000
vt -0.707107 -3.700000
vt 0.707107 -3.700000
vt 0.000000 1.000000
vt 4.100000 1.000000
vt 0.000000 5.000000
vt 4.100000 5.000000
vt -0.707107 -7.800000
vt 0.707107 -7.800000
vt -0.707107 -3.700000
vt 0.707107 -3.700000
vt -16.500000 -11.500000
vt 16.500000 -11.500000
vt 2.500000 -7.400000
vt 17.500000 -10.500000
vt 17.500000 14.500000
vt 2.500000 14.500000
vt -16.500000 -7.400000
vt 1.000000 0.000000
vt 23.000000 0.000000
vt 1.000000 6.000000
vt 26.000000 6.000000
vt 26.000000 -18.000000
vt 23.000000 -18.000000
vt 19.000000 0.000000
vt 20.000000 1.000000
vt 0.000000 0.000000
vt 20.000000 5.000000
vt 0.000000 6.000000
vt 19.000000 6.000000
vt 0.000000 -18.000000
vt 0.000000 0.000000
vt -3.000000 -18.000000
vt -3.000000 6.000000
vt 18.900000 6.000000
vt 18.900000 0.000000
vn 0.7071 -0.7071 0.0000
vn 1.0000 0.0000 0.0000
vn 0.0000 0.0000 -1.0000
vn -0.7071 -0.7071 0.0000
vn -1.0000 0.0000 0.0000
vn 0.7071 0.7071 0.0000
vn 0.0000 1.0000 0.0000
vn -0.7071 0.7071 0.0000
vn 0.0000 -1.0000 0.0000
vn 0.0000 0.0000 1.0000
vn -0.9511 0.0000 -0.3090
vn -0.9511 0.0000 0.3090
vn -0.8090 0.0000 0.5878
vn -0.5878 0.0000 0.8090
vn -0.3090 0.0000 0.9511
vn 0.3090 0.0000 0.9511
vn 0.5878 0.0000 0.8090
vn 0.8090 0.0000 0.5878
vn 0.9511 0.0000 0.3090
vn 0.9511 0.0000 -0.3090
vn 0.8090 0.0000 -0.5878
vn 0.5878 0.0000 -0.8090
vn 0.3090 0.0000 -0.9511
vn -0.3090 0.0000 -0.9511
vn -0.5878 0.0000 -0.8090
vn -0.8090 0.0000 -0.5878
vn 0.7071 0.0000 -0.7071
usemtl 13,157,13.004
s 1
f 1/1/1 2/2/1 3/3/1
f 3/3/1 2/2/1 4/4/1
f 2/5/2 5/6/2 4/7/2
f 4/7/2 5/6/2 6/8/2
f 6/8/2 5/6/2 7/9/2
f 7/9/2 5/6/2 8/10/2
f 7/9/2 8/10/2 9/11/2
f 9/11/2 10/12/2 7/9/2
f 5/13/3 2/14/3 11/15/3
f 11/15/3 2/14/3 1/16/3
f 11/15/3 1/16/3 12/17/3
f 11/15/3 13/18/3 5/13/3
f 14/19/4 15/20/4 12/21/4
f 12/21/4 15/20/4 11/22/4
f 11/23/5 15/24/5 13/25/5
f 13/25/5 15/24/5 16/26/5
f 13/25/5 16/26/5 17/27/5
f 18/28/5 19/29/5 17/27/5
f 17/27/5 19/29/5 20/30/5
f 17/27/5 20/30/5 13/25/5
f 21/31/6 10/32/6 22/33/6
f 22/33/6 10/32/6 9/34/6
f 21/35/7 22/36/7 23/37/7
f 23/37/7 22/36/7 24/38/7
f 24/39/3 22/40/3 19/41/3
f 19/41/3 22/40/3 9/42/3
f 19/41/3 9/42/3 8/43/3
f 8/43/3 20/44/3 19/41/3
f 24/45/8 19/46/8 23/47/8
f 23/47/8 19/46/8 18/48/8
f 13/49/9 20/50/9 5/51/9
f 5/51/9 20/50/9 8/52/9
f 7/53/10 10/54/10 18/55/10
f 18/55/10 10/54/10 21/56/10
f 18/55/10 21/56/10 23/57/10
f 18/55/10 17/58/10 7/53/10
f 17/59/7 16/60/7 7/61/7
f 7/61/7 16/60/7 6/62/7
f 14/63/10 3/64/10 15/65/10
f 15/65/10 3/64/10 4/66/10
f 15/65/10 4/66/10 6/67/10
f 6/67/10 16/68/10 15/65/10
f 1/69/9 3/70/9 12/71/9
f 12/71/9 3/70/9 14/72/9
usemtl 115,148,64.004
f 25/73/11 26/74/11 27/75/5
f 27/75/5 26/74/11 28/76/5
f 27/75/5 28/76/5 29/77/12
f 29/77/12 28/76/5 30/78/12
f 29/77/12 30/78/12 31/79/13
f 31/79/13 30/78/12 32/80/13
f 31/79/13 32/80/13 33/81/14
f 33/81/14 32/80/13 34/82/14
f 33/81/14 34/82/14 35/83/15
f 35/83/15 34/82/14 36/84/15
f 35/83/15 36/84/15 37/85/10
f 37/85/10 36/84/15 38/86/10
f 37/85/10 38/86/10 39/87/16
f 39/87/16 38/86/10 40/88/16
f 39/87/16 40/88/16 41/89/17
f 41/89/17 40/88/16 42/90/17
f 41/89/17 42/90/17 43/91/18
f 43/91/18 42/90/17 44/92/18
f 43/91/18 44/92/18 45/93/19
f 45/93/19 44/92/18 46/94/19
f 45/93/19 46/94/19 47/95/2
f 47/95/2 46/94/19 48/96/2
f 47/97/2 48/98/2 49/99/20
f 49/99/20 48/98/2 50/100/20
f 49/99/20 50/100/20 51/101/21
f 51/101/21 50/100/20 52/102/21
f 51/101/21 52/102/21 53/103/22
f 53/103/22 52/102/21 54/104/22
f 53/103/22 54/104/22 55/105/23
f 55/105/23 54/104/22 56/106/23
f 55/105/23 56/106/23 57/107/3
f 57/107/3 56/106/23 58/108/3
f 57/107/3 58/108/3 59/109/24
f 59/109/24 58/108/3 60/110/24
f 59/109/24 60/110/24 61/111/25
f 61/111/25 60/110/24 62/112/25
f 61/111/25 62/112/25 63/113/26
f 63/113/26 62/112/25 64/114/26
f 63/113/26 64/114/26 25/73/11
f 25/73/11 64/114/26 26/74/11
f 29/115/7 45/116/7 27/117/7
f 27/117/7 45/116/7 47/118/7
f 27/117/7 47/118/7 25/119/7
f 25/119/7 47/118/7 49/120/7
f 25/119/7 49/120/7 63/121/7
f 63/121/7 49/120/7 51/122/7
f 63/121/7 51/122/7 61/123/7
f 61/123/7 51/122/7 53/124/7
f 61/123/7 53/124/7 59/125/7
f 59/125/7 53/124/7 55/126/7
f 59/125/7 55/126/7 57/127/7
f 45/116/7 29/115/7 43/128/7
f 43/128/7 29/115/7 31/129/7
f 43/128/7 31/129/7 41/130/7
f 41/130/7 31/129/7 33/131/7
f 41/130/7 33/131/7 39/132/7
f 39/132/7 33/131/7 35/133/7
f 39/132/7 35/133/7 37/134/7
f 65/135/11 66/136/11 67/137/5
f 67/137/5 66/136/11 68/138/5
f 67/137/5 68/138/5 69/139/12
f 69/139/12 68/138/5 70/140/12
f 69/139/12 70/140/12 71/141/13
f 71/141/13 70/140/12 72/142/13
f 71/141/13 72/142/13 73/143/14
f 73/143/14 72/142/13 74/144/14
f 73/143/14 74/144/14 75/145/15
f 75/145/15 74/144/14 76/146/15
f 75/145/15 76/146/15 77/147/10
f 77/147/10 76/146/15 78/148/10
f 77/147/10 78/148/10 79/149/16
f 79/149/16 78/148/10 80/150/16
f 79/149/16 80/150/16 81/151/17
f 81/151/17 80/150/16 82/152/17
f 81/151/17 82/152/17 83/153/18
f 83/153/18 82/152/17 84/154/18
f 83/153/18 84/154/18 85/155/19
f 85/155/19 84/154/18 86/156/19
f 85/155/19 86/156/19 87/157/2
f 87/157/2 86/156/19 88/158/2
f 87/159/2 88/160/2 89/161/20
f 89/161/20 88/160/2 90/162/20
f 89/161/20 90/162/20 91/163/21
f 91/163/21 90/162/20 92/164/21
f 91/163/21 92/164/21 93/165/22
f 93/165/22 92/164/21 94/166/22
f 93/165/22 94/166/22 95/167/23
f 95/167/23 94/166/22 96/168/23
f 95/167/23 96/168/23 97/169/3
f 97/169/3 96/168/23 98/170/3
f 97/169/3 98/170/3 99/171/24
f 99/171/24 98/170/3 100/172/24
f 99/171/24 100/172/24 101/173/25
f 101/173/25 100/172/24 102/174/25
f 101/173/25 102/174/25 103/175/26
f 103/175/26 102/174/25 104/176/26
f 103/175/26 104/176/26 65/135/11
f 65/135/11 104/176/26 66/136/11
f 69/177/7 85/178/7 67/179/7
f 67/179/7 85/178/7 87/180/7
f 67/179/7 87/180/7 65/181/7
f 65/181/7 87/180/7 89/182/7
f 65/181/7 89/182/7 103/183/7
f 103/183/7 89/182/7 91/184/7
f 103/183/7 91/184/7 101/185/7
f 101/185/7 91/184/7 93/186/7
f 101/185/7 93/186/7 99/187/7
f 99/187/7 93/186/7 95/188/7
f 99/187/7 95/188/7 97/189/7
f 85/178/7 69/177/7 83/190/7
f 83/190/7 69/177/7 71/191/7
f 83/190/7 71/191/7 81/192/7
f 81/192/7 71/191/7 73/193/7
f 81/192/7 73/193/7 79/194/7
f 79/194/7 73/193/7 75/195/7
f 79/194/7 75/195/7 77/196/7
f 105/197/27 106/198/27 107/199/27
f 107/199/27 106/198/27 108/200/27
f 30/201/7 28/202/7 109/203/7
f 109/203/7 28/202/7 26/204/7
f 109/203/7 26/204/7 110/205/7
f 110/205/7 26/204/7 64/206/7
f 110/205/7 64/206/7 62/207/7
f 62/207/7 60/208/7 110/205/7
f 110/205/7 60/208/7 58/209/7
f 110/205/7 58/209/7 56/210/7
f 54/211/7 102/212/7 56/210/7
f 56/210/7 102/212/7 100/213/7
f 56/210/7 100/213/7 110/205/7
f 110/205/7 100/213/7 98/214/7
f 110/205/7 98/214/7 108/215/7
f 108/215/7 98/214/7 96/216/7
f 108/215/7 96/216/7 94/217/7
f 102/212/7 54/211/7 104/218/7
f 104/218/7 54/211/7 52/219/7
f 104/218/7 52/219/7 66/220/7
f 66/220/7 52/219/7 50/221/7
f 66/220/7 50/221/7 68/222/7
f 68/222/7 50/221/7 48/223/7
f 68/222/7 48/223/7 70/224/7
f 70/224/7 48/223/7 46/225/7
f 70/224/7 46/225/7 72/226/7
f 72/226/7 46/225/7 44/227/7
f 72/226/7 44/227/7 74/228/7
f 74/228/7 44/227/7 42/229/7
f 74/228/7 42/229/7 76/230/7
f 76/230/7 42/229/7 40/231/7
f 76/230/7 40/231/7 111/232/7
f 111/232/7 40/231/7 109/203/7
f 109/203/7 40/231/7 38/233/7
f 109/203/7 38/233/7 36/234/7
f 36/234/7 34/235/7 109/203/7
f 109/203/7 34/235/7 32/236/7
f 109/203/7 32/236/7 30/201/7
f 94/217/7 92/237/7 108/215/7
f 108/215/7 92/237/7 90/238/7
f 108/215/7 90/238/7 111/232/7
f 111/232/7 90/238/7 88/239/7
f 111/232/7 88/239/7 86/240/7
f 86/240/7 84/241/7 111/232/7
f 111/232/7 84/241/7 82/242/7
f 111/232/7 82/242/7 80/243/7
f 80/243/7 78/244/7 111/232/7
f 111/232/7 78/244/7 76/230/7
f 108/215/7 106/245/7 110/205/7
f 110/205/7 106/245/7 112/246/7
f 110/205/7 112/246/7 113/247/7
f 105/248/3 114/249/3 106/250/3
f 106/250/3 114/249/3 115/251/3
f 106/250/3 115/251/3 112/252/3
f 105/248/3 116/253/3 114/249/3
f 117/254/8 118/255/8 119/256/8
f 119/256/8 118/255/8 120/257/8
f 118/258/7 121/259/7 120/260/7
f 120/260/7 121/259/7 122/261/7
f 117/262/10 123/263/10 118/264/10
f 118/264/10 123/263/10 121/265/10
f 121/265/10 123/263/10 124/266/10
f 121/265/10 124/266/10 125/267/10
f 121/268/6 125/269/6 122/270/6
f 122/270/6 125/269/6 126/271/6
f 119/272/3 120/273/3 109/274/3
f 109/274/3 120/273/3 122/275/3
f 109/274/3 122/275/3 111/276/3
f 111/276/3 122/275/3 126/277/3
f 112/278/8 115/279/8 113/280/8
f 113/280/8 115/279/8 127/281/8
f 127/282/5 115/283/5 128/284/5
f 128/284/5 115/283/5 114/285/5
f 114/286/4 116/287/4 128/288/4
f 128/288/4 116/287/4 129/289/4
f 116/290/9 105/291/9 130/292/9
f 130/292/9 105/291/9 107/293/9
f 130/292/9 107/293/9 124/294/9
f 124/294/9 123/295/9 130/292/9
f 130/292/9 129/296/9 116/290/9
f 108/297/2 111/298/2 107/299/2
f 107/299/2 111/298/2 124/300/2
f 124/300/2 111/298/2 125/301/2
f 125/301/2 111/298/2 126/302/2
f 113/303/10 127/304/10 110/305/10
f 110/305/10 127/304/10 128/306/10
f 110/305/10 128/306/10 130/307/10
f 130/307/10 128/306/10 129/308/10
f 119/309/5 109/310/5 117/311/5
f 117/311/5 109/310/5 123/312/5
f 123/312/5 109/310/5 130/313/5
f 130/313/5 109/310/5 110/314/5
